<?xml version="1.0" encoding="UTF-8" standalone="no"?>
<svg
   xmlns:dc="http://purl.org/dc/elements/1.1/"
   xmlns:cc="http://creativecommons.org/ns#"
   xmlns:rdf="http://www.w3.org/1999/02/22-rdf-syntax-ns#"
   xmlns:svg="http://www.w3.org/2000/svg"
   xmlns="http://www.w3.org/2000/svg"
   xmlns:sodipodi="http://sodipodi.sourceforge.net/DTD/sodipodi-0.dtd"
   xmlns:inkscape="http://www.inkscape.org/namespaces/inkscape"
   width="30.342916in"
   height="34.373737in"
   viewBox="0 0 3034.2917 3437.3736"
   id="svg2"
   version="1.1"
   inkscape:version="0.91 r13725"
   sodipodi:docname="cowplot.svg"
   inkscape:export-filename="/home/khench/Schreibtisch/PhD/data/images/hypoSymb2/logos/hypoimg.png"
   inkscape:export-xdpi="9.21"
   inkscape:export-ydpi="9.21">
  <sodipodi:namedview
     pagecolor="#ffffff"
     bordercolor="#666666"
     borderopacity="1"
     objecttolerance="10"
     gridtolerance="10"
     guidetolerance="10"
     inkscape:pageopacity="0"
     inkscape:pageshadow="2"
     inkscape:window-width="1920"
     inkscape:window-height="1056"
     id="namedview15"
     showgrid="false"
     inkscape:zoom="0.1767767"
     inkscape:cx="3578.6059"
     inkscape:cy="2061.2225"
     inkscape:window-x="1366"
     inkscape:window-y="24"
     inkscape:window-maximized="1"
     inkscape:current-layer="g4307"
     fit-margin-top="2"
     fit-margin-left="2"
     fit-margin-right="2"
     fit-margin-bottom="2" />
  <metadata
     id="metadata9">
    <rdf:RDF>
      <cc:Work
         rdf:about="">
        <dc:format>image/svg+xml</dc:format>
        <dc:type
           rdf:resource="http://purl.org/dc/dcmitype/StillImage" />
        <dc:title />
      </cc:Work>
    </rdf:RDF>
  </metadata>
  <defs
     id="defs7">
    <style
       type="text/css"
       id="style4286"><![CDATA[
    line, polyline, polygon, path, rect, circle {
      fill: none;
      stroke: #000000;
      stroke-linecap: round;
      stroke-linejoin: round;
      stroke-miterlimit: 10.00;
    }
  ]]></style>
    <filter
       inkscape:collect="always"
       style="color-interpolation-filters:sRGB"
       id="filter4145"
       x="-0.12927495"
       width="1.2585499"
       y="-0.11195597"
       height="1.2239119">
      <feGaussianBlur
         inkscape:collect="always"
         stdDeviation="22.953306"
         id="feGaussianBlur4147" />
    </filter>
  </defs>
  <g
     style="stroke-width:6.83020306;stroke-miterlimit:10;stroke-dasharray:none"
     transform="matrix(5.6977545,0,0,5.6895788,-2375.1376,407.1455)"
     id="g4307">
    <polygon
       id="polygon4142"
       clip-path="url(#cpMC4wMHw0NjguNzV8NjIyLjAxfDgwLjc0)"
       style="fill:#000000;fill-opacity:1;stroke:#000000;stroke-width:11.0724535;stroke-linecap:square;stroke-linejoin:miter;stroke-miterlimit:10;stroke-dasharray:none;stroke-opacity:1;filter:url(#filter4145)"
       points="21.31,474.39 21.31,228.36 234.38,105.35 447.44,228.36 447.44,474.39 234.38,597.4 "
       transform="matrix(1.0574931,0,0,1.0574708,435.27592,-141.05242)" />
    <g
       id="g4443"
       transform="matrix(1.0193465,0,0,1.0193465,-570.34806,-71.299123)">
      <path
         inkscape:connector-curvature="0"
         id="path4435"
         d="M 1352.9014,466.55749 1439.0477,416.88188 1438.8265,295.96063 1438.6054,175.03938 1334.2257,114.83242 1229.8459,54.625452 1125.0829,115.04796 1020.3199,175.47047 1020.329,296.10311 1020.3381,416.73573 1125.1041,477.14245 1229.8701,537.54917 1248.3126,526.89113 C 1258.456,521.02921 1305.5209,493.87907 1352.9014,466.55749 Z"
         style="fill:#ffffff;fill-opacity:1;stroke:none;stroke-width:6.83020306;stroke-linecap:round;stroke-linejoin:round;stroke-miterlimit:10" />
      <path
         id="path4368"
         d="M 1243.5686,346.40215 C 1247.1936,344.61386 1247.7936,342.86387 1247.8301,333.97336 L 1247.8569,327.42143 1245.6307,334.19176 C 1244.4063,337.91544 1243.0438,340.96208 1242.6029,340.96208 1242.162,340.96208 1240.2752,340.18245 1238.4101,339.22955 1232.7309,336.32809 1232.9051,333.38477 1239.2303,325.37134 1241.2454,322.81836 1242.6312,320.46621 1242.3098,320.14434 1241.5179,319.3513 1217.7544,319.39525 1216.9595,320.19123 1216.6124,320.53889 1217.7351,322.3827 1219.4545,324.2886 1223.0987,328.32807 1225.2964,332.27909 1225.2964,334.79117 1225.2964,336.84532 1219.0255,341.42101 1217.1815,340.71238 1215.6697,340.13142 1212.0882,329.28842 1212.7292,327.23309 1213.1517,325.8786 1213.0772,325.89166 1212.1614,327.33265 1211.4553,328.44368 1211.2638,331.18286 1211.5811,335.63176 1212.1438,343.5189 1212.5603,344.75429 1215.1193,346.12579 1220.591,349.05839 1237.8444,349.226 1243.5686,346.40215 Z"
         style="fill:#e4c3ae;fill-opacity:1;stroke:none;stroke-width:6.83020306;stroke-linecap:round;stroke-linejoin:round;stroke-miterlimit:10"
         inkscape:connector-curvature="0" />
      <path
         sodipodi:nodetypes="csscsssssssssssscssssssssccsscsssscsssssscssccccsccssc"
         style="fill:#ca885e;fill-opacity:1;stroke:none;stroke-width:6.83020306;stroke-linecap:round;stroke-linejoin:round;stroke-miterlimit:10"
         d="M 1210.2041,327.30248 C 1209.8267,320.79274 1207.6645,312.71673 1205.1244,299.42601 1199.2046,268.45154 1201.2551,271.93201 1191.1848,269.63556 1169.6694,264.72917 1165.5939,263.79273 1165.561,255.62868 1165.5441,251.4457 1166.514,251.39498 1168.3894,249.99104 1171.6009,247.58691 1178.1736,247.06534 1183.01,248.2951 1184.6645,248.71579 1195.7234,253.30286 1196.4277,253.02968 1197.5085,252.61048 1187.7225,246.96536 1187.7225,245.83146 1187.7225,244.64606 1185.1684,243.60977 1162.288,242.04171 1144.214,240.80306 1137.8756,238.99024 1133.8194,235.93757 1132.0794,234.62807 1125.7666,229.64513 1120.1204,224.36932 1108.8609,213.84837 1101.9931,208.46018 1097.9749,206.75484 1094.0918,205.10681 1083.3394,202.8101 1072.9784,201.73916 1064.4932,200.8621 1062.1935,200.69393 1050.2227,202.85265 1040.2303,204.65458 1038.9532,205.48711 1038.1527,204.68278 1036.7761,203.29959 1038.8854,204.18561 1049.0875,198.29774 L 1055.887,194.37365 1065.9236,194.07397 C 1077.4753,193.72906 1091.6948,194.8103 1098.3148,196.77905 1102.6347,198.06376 1104.338,200.11761 1126.5162,217.20973 1130.5943,220.35268 1135.9556,223.44674 1137.9358,224.41545 1143.461,227.11836 1154.2441,228.09364 1174.7991,227.44875 1190.9971,226.94056 1194.7256,227.4953 1195.1289,226.22274 1195.4555,225.19217 1198.4715,223.68669 1206.1222,221.71756 1218.7442,218.46893 1217.3434,217.15048 1222.2938,218.94723 L 1229.3885,221.52223 1233.517,221.24239 C 1235.6438,220.15583 1236.9694,218.08436 1239.4738,217.90989 1242.5668,217.69441 1247.1746,219.66325 1253.917,221.45855 1261.3694,223.44294 1264.3738,225.61334 1264.6427,226.64284 1264.9741,227.91189 1267.8973,226.67744 1284.4653,227.18527 1306.4902,227.86037 1314.7692,227.91847 1321.2181,224.73877 1323.7281,223.5012 1332.9566,217.02725 1339.9134,211.50728 1360.405,195.24815 1362.8172,193.27642 1388.8595,193.97446 L 1403.7527,194.37365 1412.4786,198.8779 C 1421.2702,203.41609 1422.5639,203.42408 1421.2842,204.70565 1420.9635,205.02682 1417.3929,204.11726 1410.054,202.84943 1397.7764,200.72841 1396.3833,200.48424 1387.9554,201.34796 1374.1441,202.76339 1364.9944,205.35144 1359.5115,208.67921 1356.873,210.28061 1348.6146,217.03081 1341.489,223.67964 1334.3635,230.32848 1325.9914,236.93101 1324.0012,237.91696 1319.6863,240.05465 1308.615,240.81453 1288.4979,242.01092 1280.6484,242.47773 1273.0153,243.97672 1272.8171,244.17518 1272.6189,244.37364 1264.2245,251.20803 1264.5325,252.01183 1264.9285,253.04523 1274.7887,249.47958 1276.1036,249.05695 1283.0956,246.80943 1287.7721,247.88001 1291.6883,251.56431 1294.3735,254.09061 1293.665,255.96564 1291.1187,260.95471 1288.8396,265.42004 1289.1297,264.84989 1271.89,268.80479 1263.1187,270.817 1260.5322,270.14889 1260.1494,271.67669 1257.3214,282.96418 1250.4243,317.14328 1249.8763,325.89651 1245.2876,323.92256 1245.4334,317.56114 1241.1564,318.61576 1234.2842,320.31025 1223.3569,317.6831 1218.0526,319.48644 1211.9846,321.54939 1214.3484,324.64759 1210.2041,327.30248 Z"
         id="path4345"
         inkscape:connector-curvature="0" />
      <path
         style="fill:#291b13;fill-opacity:1;stroke:none;stroke-width:6.83020306;stroke-linecap:round;stroke-linejoin:round;stroke-miterlimit:10"
         d="M 1116.2543,492.16422 1003.2867,426.89628 1003.0943,295.91498 1002.902,164.93366 1115.9218,99.851196 C 1178.0827,64.055839 1229.4431,34.814605 1230.056,34.870678 1230.669,34.92675 1281.8619,64.209386 1343.818,99.943202 L 1456.4656,164.91377 1456.4354,295.96225 1456.4052,427.01071 1343.4548,492.09318 C 1281.332,527.88854 1230.2158,557.23336 1229.8631,557.3039 1229.5104,557.37444 1178.3865,528.06158 1116.2543,492.16422 Z M 1352.8787,466.34939 1439.025,416.67378 1438.8038,295.75253 1438.5827,174.83128 1334.203,114.62432 1229.8232,54.417346 1125.0602,114.83986 1020.2972,175.26237 1020.3063,295.89501 1020.3154,416.52763 1125.0814,476.93435 1229.8474,537.34107 1248.2899,526.68303 C 1258.4333,520.82111 1305.4982,493.67097 1352.8787,466.34939 Z M 1237.5091,409.97571 1237.5091,378.52646 1241.4346,378.52646 1245.3601,378.52646 1245.3601,382.02082 C 1245.3601,383.94272 1245.5684,385.51518 1245.8229,385.51518 1246.0775,385.51518 1247.471,384.16328 1248.9197,382.51096 1252.2369,378.72745 1256.3425,377.35375 1262.911,377.82956 1268.6242,378.24341 1271.6272,379.96198 1274.8033,384.63547 1277.7495,388.97051 1278.7367,393.86653 1278.3417,402.18401 1277.8994,411.49653 1274.9089,418.38884 1269.6577,422.19832 1263.7004,426.5199 1255.2978,426.67216 1249.2585,422.56795 1247.5516,421.40791 1245.9761,420.45879 1245.7575,420.45879 1245.539,420.45879 1245.3601,425.17617 1245.3601,430.94187 L 1245.3601,441.42495 1241.4346,441.42495 1237.5091,441.42495 1237.5091,409.97571 Z M 1264.5311,417.12706 C 1267.9834,414.57049 1269.276,411.01191 1269.6399,403.06262 1270.0452,394.20644 1268.8969,389.88621 1265.3412,386.88995 1260.6924,382.97263 1253.7334,384.22288 1247.3229,390.12713 1245.4921,391.81335 1245.3601,392.65573 1245.3601,402.65801 L 1245.3601,413.38115 1248.3566,415.66994 C 1253.8562,419.87075 1260.0702,420.43055 1264.5311,417.12706 Z M 1083.7677,424.45727 C 1076.8215,421.97461 1072.0538,416.81173 1070.0332,409.58455 1068.453,403.93265 1069.2486,393.00681 1071.5692,388.49003 1073.9236,383.90743 1078.6652,379.74654 1082.8636,378.57899 1086.5077,377.56554 1097.0673,377.348 1101.3155,378.19886 1103.8172,378.69992 1104.0416,379.02918 1104.0416,382.19943 L 1104.0416,385.654 1101.2065,384.9294 C 1095.7212,383.52745 1087.2344,384.05292 1084.6911,385.95198 1081.1209,388.61784 1078.6219,393.77065 1078.0991,399.54418 1077.5162,405.98156 1079.2908,411.09125 1083.5427,415.2183 1086.1244,417.72415 1087.3228,418.21477 1091.6011,418.51732 1094.6938,418.73604 1098.0703,418.37097 1100.3801,417.56811 L 1104.1335,416.26349 1103.8694,419.88992 1103.6054,423.51635 1098.8075,424.5241 C 1092.3518,425.88008 1087.6905,425.85937 1083.7677,424.45727 Z M 1127.3393,424.3464 C 1121.9064,422.60321 1117.1385,417.76185 1115.0594,411.8774 1112.8633,405.66193 1113.3562,393.68062 1116.0181,388.57275 1119.898,381.12767 1125.8909,377.65287 1134.8513,377.65287 1144.7932,377.65287 1150.5003,380.91986 1154.3602,388.82047 1158.9116,398.13672 1157.2728,412.58514 1150.8871,419.44093 1145.9782,424.7111 1135.366,426.92184 1127.3393,424.3464 Z M 1142.306,417.18757 C 1146.8308,413.81023 1148.0946,410.32859 1148.0946,401.2398 1148.0946,391.76574 1146.7927,388.3062 1142.1639,385.47982 1137.8425,382.84108 1131.0894,383.14119 1127.543,386.12959 1123.5392,389.50339 1122.2068,393.38917 1122.2298,401.62564 1122.2576,411.62169 1124.1432,415.81541 1129.7755,418.40757 1133.1827,419.97567 1139.3788,419.37239 1142.306,417.18757 Z M 1327.9768,424.3464 C 1322.5439,422.60321 1317.7759,417.76185 1315.6968,411.8774 1313.5008,405.66193 1313.9937,393.68062 1316.6556,388.57275 1320.5355,381.12767 1326.5284,377.65287 1335.4888,377.65287 1345.4306,377.65287 1351.1377,380.91986 1354.9976,388.82047 1359.5491,398.13672 1357.9103,412.58514 1351.5245,419.44093 1346.6156,424.7111 1336.0034,426.92184 1327.9768,424.3464 Z M 1342.9434,417.18757 C 1347.4683,413.81023 1348.732,410.32859 1348.732,401.2398 1348.732,391.76574 1347.4302,388.3062 1342.8014,385.47982 1338.4799,382.84108 1331.7268,383.14119 1328.1804,386.12959 1324.1766,389.50339 1322.8443,393.38917 1322.8672,401.62564 1322.895,411.62169 1324.7807,415.81541 1330.4129,418.40757 1333.8201,419.97567 1340.0162,419.37239 1342.9434,417.18757 Z M 1379.2157,424.76709 C 1375.9438,423.81482 1373.2845,420.98351 1371.9698,417.05247 1371.3837,415.30016 1370.9766,408.04887 1370.9766,399.36227 L 1370.9766,384.64159 1368.3596,384.64159 C 1365.9503,384.64159 1365.7426,384.39892 1365.7426,381.58402 1365.7426,378.76912 1365.9503,378.52646 1368.3596,378.52646 1370.9184,378.52646 1370.9766,378.42939 1370.9766,374.15851 1370.9766,369.91483 1371.049,369.79056 1373.5223,369.79056 1374.9224,369.79056 1376.6889,369.55194 1377.4478,369.2603 1378.6049,368.81562 1378.8276,369.52063 1378.8276,373.62825 L 1378.8276,378.52646 1384.934,378.52646 1391.0404,378.52646 1391.0404,381.58402 1391.0404,384.64159 1384.934,384.64159 1378.8276,384.64159 1378.8769,397.96384 C 1378.9061,405.87448 1379.349,412.51885 1379.9673,414.32088 1381.1906,417.88641 1384.2445,419.75059 1388.2053,419.34952 1390.8686,419.07983 1391.0404,419.23044 1391.0404,421.83539 1391.0404,424.24222 1390.6804,424.68043 1388.3143,425.15433 1384.8711,425.84397 1382.5809,425.7465 1379.2157,424.76709 Z M 1173.9325,418.9758 C 1172.9745,415.70741 1170.1837,405.95719 1167.7307,397.30865 1165.2778,388.66011 1163.0682,380.89607 1162.8207,380.05524 1162.4387,378.75795 1162.9688,378.52646 1166.3212,378.52646 1170.1439,378.52646 1170.3012,378.63257 1171.1773,381.80242 1177.3638,404.18686 1179.7663,412.10108 1180.4396,412.31376 1180.8817,412.45338 1183.5563,404.90837 1186.3831,395.54704 L 1191.5229,378.52646 1195.6219,378.52646 1199.7209,378.52646 1203.4859,392.7223 C 1205.5566,400.53001 1207.6003,408.19577 1208.0274,409.75731 1208.4545,411.31885 1209.108,412.59648 1209.4796,412.59648 1209.8512,412.59648 1212.6009,404.93072 1215.59,395.56147 L 1221.0248,378.52646 1224.5624,378.52646 C 1227.3542,378.52646 1227.9938,378.80371 1227.5961,379.84157 1227.3189,380.56489 1223.8907,391.00196 1219.9777,403.03507 L 1212.8632,424.91345 1208.8489,424.6517 1204.8347,424.38994 1200.1948,407.38663 C 1195.7219,390.99546 1195.1194,389.16303 1194.4635,389.95593 1194.2979,390.15613 1191.8132,397.98568 1188.942,407.35493 L 1183.7216,424.38994 1179.698,424.65413 1175.6743,424.91833 1173.9325,418.9758 Z M 1292.4663,391.19352 1292.4663,357.56029 1296.3918,357.56029 1300.3173,357.56029 1300.3173,391.19352 1300.3173,424.82674 1296.3918,424.82674 1292.4663,424.82674 1292.4663,391.19352 Z M 1217.4453,349.59775 C 1210.8582,347.62205 1210.0116,345.74753 1209.2053,331.35259 1208.8387,324.80873 1203.8706,295.86179 1199.4952,274.77629 1199.0954,272.84961 1198.3036,271.79585 1197.0522,271.52484 1188.0795,269.58169 1173.6699,265.81072 1171.1437,264.74461 1165.6035,262.40653 1163.1887,253.89693 1167.0679,250.382 1169.4503,248.22332 1174.0086,246.60917 1177.6661,246.62904 1179.1538,246.63712 1183.6096,247.95909 1187.5678,249.56676 1191.526,251.17443 1194.7646,252.18312 1194.7646,251.8083 1194.7646,251.43348 1193.0113,250.45624 1190.8684,249.63668 1187.8145,248.46871 1187.013,247.74854 1187.1609,246.30548 1187.3436,244.52398 1186.8133,244.42993 1170.7753,243.39965 1152.3402,242.21538 1142.2354,241.03612 1136.96,239.45328 1134.5391,238.72694 1130.6076,235.78977 1124.3823,230.05684 1108.4311,215.36716 1101.9485,209.93283 1098.1882,208.09858 1093.2233,205.67679 1080.202,203.09144 1069.5843,202.41936 1061.5189,201.90884 1051.4061,203.06335 1037.9621,206.02945 1033.8698,206.93229 1036.1109,203.82023 1042.0575,200.34221 1054.7067,192.94407 1054.9682,192.87545 1070.0204,193.00417 1085.9561,193.14045 1098.4088,195.03409 1103.6685,198.12091 1105.6418,199.27905 1113.0299,204.74724 1120.0863,210.27246 1127.1427,215.79766 1134.1948,221.10968 1135.7576,222.07693 1141.7892,225.81002 1147.5089,226.52177 1171.4764,226.52177 1193.1576,226.52177 1194.0733,226.45377 1194.5021,224.81193 1194.9937,222.92919 1196.4087,222.37558 1209.0356,219.12584 1219.4486,216.44587 1219.9389,216.4347 1225.3243,218.75478 L 1229.6012,220.59729 1234.4085,218.60192 C 1239.172,216.62472 1239.2775,216.61994 1245.9954,218.0771 1258.416,220.77124 1264.7107,223.01164 1265.2078,224.91505 1265.6521,226.61641 1266.2856,226.65271 1290.6446,226.37242 L 1315.6259,226.08497 1321.2747,223.24088 C 1324.3816,221.67664 1332.6156,215.8628 1339.5725,210.32125 1346.5294,204.77971 1354.5767,199.10215 1357.4554,197.70446 1364.1918,194.43374 1373.2088,193.11647 1389.7318,192.98928 1404.2927,192.87718 1404.6941,192.98414 1417.7933,200.46643 1427.1674,205.82092 1425.7021,206.62572 1411.2761,204.04613 1398.0307,201.67766 1389.4474,201.72673 1374.9021,204.2541 1363.604,206.21724 1358.1576,209.20209 1346.6712,219.72596 1328.3446,236.51674 1325.7246,238.65517 1322.3734,239.55771 1316.5604,241.1232 1307.2911,242.17472 1289.6312,243.27199 1272.7292,244.32218 1272.4026,244.37929 1272.4026,246.28425 1272.4026,247.72017 1271.6253,248.4829 1269.4192,249.21205 1267.7783,249.75437 1265.9668,250.76392 1265.3937,251.45551 1264.7846,252.19042 1267.0212,251.60043 1270.776,250.0357 1279.6578,246.33441 1284.8268,245.92298 1289.8493,248.51759 1293.4524,250.37896 1293.7966,250.84637 1294.0406,254.20914 1294.3714,258.76697 1292.4149,262.74256 1288.9609,264.53127 1287.5289,265.27283 1280.8079,267.22081 1274.0252,268.86013 1267.2426,270.49944 1261.3837,272.15978 1261.0055,272.54977 1259.5573,274.04311 1251.3241,320.62598 1250.6126,331.35259 1249.7622,344.17238 1249.0334,346.47435 1245.1795,348.51336 1241.7462,350.32987 1222.4073,351.086 1217.4453,349.59775 Z M 1243.5686,346.40215 C 1247.1936,344.61386 1247.7936,342.86387 1247.8301,333.97336 L 1247.8569,327.42143 1245.6307,334.19176 C 1244.4063,337.91544 1243.0438,340.96208 1242.6029,340.96208 1242.162,340.96208 1240.2752,340.18245 1238.4101,339.22955 1232.7309,336.32809 1232.9051,333.38477 1239.2303,325.37134 1241.2454,322.81836 1242.6312,320.46621 1242.3098,320.14434 1241.5179,319.3513 1217.7544,319.39525 1216.9595,320.19123 1216.6124,320.53889 1217.7351,322.3827 1219.4545,324.2886 1223.0987,328.32807 1225.2964,332.27909 1225.2964,334.79117 1225.2964,336.84532 1219.0255,341.42101 1217.1815,340.71238 1215.6697,340.13142 1212.0882,329.28842 1212.7292,327.23309 1213.1517,325.8786 1213.0772,325.89166 1212.1614,327.33265 1211.4553,328.44368 1211.2638,331.18286 1211.5811,335.63176 1212.1438,343.5189 1212.5603,344.75429 1215.1193,346.12579 1220.591,349.05839 1237.8444,349.226 1243.5686,346.40215 Z M 1253.233,299.46655 C 1256.8044,280.66338 1257.2125,277.43503 1256.1685,276.24762 1254.5879,274.45004 1254.6307,271.61777 1256.2867,268.41071 1257.8678,265.34889 1258.7723,265.1953 1260.5186,267.69211 L 1261.8187,269.55088 1273.4351,266.77563 C 1289.1375,263.02419 1290.3622,262.43281 1291.7019,257.95483 1292.9711,253.71239 1292.2804,252.04881 1288.4744,250.1815 1284.2198,248.09411 1279.539,248.71608 1270.2967,252.59696 1265.5401,254.59426 1261.4434,256.02316 1261.1928,255.77229 1259.9278,254.50542 1262.7551,250.3672 1266.1774,248.47664 1269.22,246.79585 1269.8741,246.01286 1269.5694,244.41636 1269.1996,242.47905 1269.3994,242.42663 1279.3025,241.8629 1307.3176,240.26815 1319.6114,238.77363 1324.1812,236.40713 1325.5923,235.67635 1331.4406,230.69623 1337.1774,225.34018 1356.555,207.24875 1360.2603,204.87342 1372.7213,202.55411 1387.6577,199.77407 1396.3823,199.41526 1406.5733,201.1619 1411.7041,202.04126 1416.0178,202.65111 1416.1594,202.51713 1416.6244,202.07719 1409.0107,197.97806 1404.7783,196.38968 1401.1641,195.03329 1398.7069,194.9 1385.5869,195.34858 1377.3113,195.63154 1368.0793,196.4243 1365.0711,197.11027 1358.6525,198.57398 1356.3193,200.02983 1339.761,212.90321 1332.9077,218.23128 1325.1898,223.67848 1322.6099,225.00811 1316.3048,228.25767 1306.7732,229.08963 1282.735,228.48859 1264.5458,228.03379 1263.8129,227.94727 1262.9993,226.1592 1262.3206,224.66744 1259.9652,223.74783 1251.0243,221.48393 L 1239.8942,218.66568 1234.8819,220.91832 1229.8695,223.17096 1226.1382,221.26464 C 1221.492,218.89094 1218.9297,218.887 1209.5943,221.23921 1198.4017,224.05937 1196.7296,224.7102 1196.283,226.42028 1195.9089,227.85273 1194.1892,228.03466 1176.7815,228.48326 1153.6808,229.07855 1144.1857,228.33347 1137.8733,225.43013 1135.3386,224.26436 1127.5728,218.84134 1120.616,213.37896 1099.0978,196.48343 1098.054,196.09152 1072.6374,195.36517 L 1057.3715,194.92889 1050.0556,198.52134 C 1046.0319,200.49719 1042.9117,202.28607 1043.122,202.49663 1043.3322,202.70718 1047.7473,202.14189 1052.9331,201.24042 1063.6102,199.3844 1074.4951,199.90314 1088.4858,202.93475 1100.4747,205.53258 1103.1869,207.33852 1123.2162,226.06008 1128.7245,231.20874 1134.3219,235.98611 1135.655,236.67647 1138.9168,238.36563 1153.5819,240.26008 1171.832,241.34985 1180.0898,241.84295 1187.6539,242.24639 1188.6411,242.24639 1190.1098,242.24639 1190.3388,242.63499 1189.9004,244.38394 1189.4462,246.19633 1189.8086,246.70955 1192.2827,247.75773 1196.0007,249.33289 1198.4753,252.1065 1198.1059,254.28454 1197.8364,255.87396 1197.2544,255.75715 1189.0944,252.47567 1183.5903,250.26225 1179.0443,248.98724 1176.776,249.02074 1172.8163,249.07923 1168.2066,251.07885 1167.444,253.06879 1166.7251,254.94505 1168.3598,260.10834 1170.2012,261.77715 1171.0795,262.57316 1177.5664,264.65493 1184.6165,266.40331 L 1197.4348,269.58218 1199.4581,267.67865 C 1201.7224,265.54842 1202.6295,266.07926 1204.316,270.52144 1205.0501,272.45497 1204.9446,273.47754 1203.8133,275.39547 1202.4485,277.70912 1202.5772,278.88 1206.566,300.43804 1208.8675,312.87653 1210.8305,323.16487 1210.9284,323.301 1211.0263,323.43714 1212.4934,322.15951 1214.1886,320.46183 L 1217.2709,317.37515 1229.0779,317.37515 C 1235.5717,317.37515 1241.8558,317.74481 1243.0424,318.19664 1244.2291,318.64846 1245.923,320.24956 1246.8067,321.75466 1248.1188,323.98952 1248.4748,324.19926 1248.7491,322.89875 1248.9337,322.0229 1250.9515,311.47841 1253.233,299.46655 Z"
         id="path4339"
         inkscape:connector-curvature="0" />
      <path
         sodipodi:nodetypes="ccscccscccsscsc"
         inkscape:connector-curvature="0"
         id="path4396"
         transform="matrix(0.1950086,0,0,0.19528881,416.85503,-71.55989)"
         d="M 4241.4219,2015.1777 C 4240.5364,2015.1266 4238.1879,2021.9102 4237.4102,2022.6016 4231.1879,2028.1322 4226.2064,2035.2308 4221.0215,2043.0625 4215.8366,2050.8942 4202.6071,2067.0091 4203.2988,2078.7617 4203.9901,2090.5144 4219.1995,2093.971 4222.6562,2097.4277 4226.113,2100.8843 4231.6435,2101.5745 4237.8652,2084.9824 4244.1296,2068.2772 4251.5726,2051.6318 4252.9551,2042.6445 4254.1648,2034.7806 4247.6201,2015.5359 4241.4219,2015.1777 Z M 4102.4062,2029.2383 C 4101.3631,2029.2324 4100.2932,2029.7342 4099.1934,2030.9258 4099.1934,2030.9258 4086.0923,2042.0023 4093.0059,2062.7422 4099.9194,2083.4822 4101.841,2096.9865 4109.4453,2099.0605 4117.0501,2101.1346 4124.4522,2090.5145 4131.3652,2080.8359 4138.2788,2071.1572 4119.7319,2048.8665 4114.8926,2043.3359 4110.9607,2038.8423 4106.9268,2029.2637 4102.4062,2029.2383 Z"
         style="fill:#4d2911;fill-opacity:1;fill-rule:evenodd;stroke:none;stroke-width:1px;stroke-linecap:butt;stroke-linejoin:miter;stroke-miterlimit:10;stroke-opacity:1" />
    </g>
    <path
       id="polygon4315"
       d="M 683.13116,490.68063 908.44063,360.60115"
       clip-path="url(#cpMC4wMHw0NjguNzV8NjIyLjAxfDgwLjc0)"
       style="fill:#cccccc;stroke:none;stroke-width:6.83020306;stroke-linecap:square;stroke-linejoin:miter;stroke-miterlimit:10;stroke-dasharray:none"
       inkscape:connector-curvature="0" />
  </g>
</svg>
