<?xml version="1.0" encoding="UTF-8" standalone="no"?>
<svg
   xmlns:dc="http://purl.org/dc/elements/1.1/"
   xmlns:cc="http://creativecommons.org/ns#"
   xmlns:rdf="http://www.w3.org/1999/02/22-rdf-syntax-ns#"
   xmlns:svg="http://www.w3.org/2000/svg"
   xmlns="http://www.w3.org/2000/svg"
   xmlns:sodipodi="http://sodipodi.sourceforge.net/DTD/sodipodi-0.dtd"
   xmlns:inkscape="http://www.inkscape.org/namespaces/inkscape"
   width="30.342916in"
   height="34.373737in"
   viewBox="0 0 3034.2917 3437.3736"
   id="svg2"
   version="1.1"
   inkscape:version="0.91 r13725"
   sodipodi:docname="readr.svg"
   inkscape:export-filename="/home/khench/Schreibtisch/PhD/data/images/hypoSymb2/logos/hypoimg.png"
   inkscape:export-xdpi="9.21"
   inkscape:export-ydpi="9.21">
  <sodipodi:namedview
     pagecolor="#ffffff"
     bordercolor="#666666"
     borderopacity="1"
     objecttolerance="10"
     gridtolerance="10"
     guidetolerance="10"
     inkscape:pageopacity="0"
     inkscape:pageshadow="2"
     inkscape:window-width="1920"
     inkscape:window-height="1056"
     id="namedview15"
     showgrid="false"
     inkscape:zoom="0.15803252"
     inkscape:cx="3759.7966"
     inkscape:cy="993.48324"
     inkscape:window-x="1366"
     inkscape:window-y="24"
     inkscape:window-maximized="1"
     inkscape:current-layer="svg2"
     fit-margin-top="2"
     fit-margin-left="2"
     fit-margin-right="2"
     fit-margin-bottom="2" />
  <metadata
     id="metadata9">
    <rdf:RDF>
      <cc:Work
         rdf:about="">
        <dc:format>image/svg+xml</dc:format>
        <dc:type
           rdf:resource="http://purl.org/dc/dcmitype/StillImage" />
        <dc:title></dc:title>
      </cc:Work>
    </rdf:RDF>
  </metadata>
  <defs
     id="defs7">
    <style
       type="text/css"
       id="style4286"><![CDATA[
    line, polyline, polygon, path, rect, circle {
      fill: none;
      stroke: #000000;
      stroke-linecap: round;
      stroke-linejoin: round;
      stroke-miterlimit: 10.00;
    }
  ]]></style>
    <filter
       inkscape:collect="always"
       style="color-interpolation-filters:sRGB"
       id="filter4145"
       x="-0.12927495"
       width="1.2585499"
       y="-0.11195597"
       height="1.2239119">
      <feGaussianBlur
         inkscape:collect="always"
         stdDeviation="22.953306"
         id="feGaussianBlur4147" />
    </filter>
    <style
       id="style5495">.cls-1{fill:#f2f2f2;}.cls-2{fill:#fff;}.cls-3{fill:#e6b35a;}.cls-4{fill:#424242;}.cls-5{fill:#51a7f9;}.cls-6{fill:#a8d6ff;}.cls-7{fill:#0365c0;}.cls-8{fill:#164f86;}.cls-9{fill:#002452;}.cls-10{fill:#000643;}</style>
  </defs>
  <polygon
     transform="matrix(6.0253361,0,0,6.0165634,104.95773,-395.38336)"
     points="234.38,105.35 447.44,228.36 447.44,474.39 234.38,597.4 21.31,474.39 21.31,228.36 "
     style="fill:#000000;fill-opacity:1;stroke:#000000;stroke-width:11.0724535;stroke-linecap:square;stroke-linejoin:miter;stroke-miterlimit:10;stroke-dasharray:none;stroke-opacity:1;filter:url(#filter4145)"
     clip-path="url(#cpMC4wMHw0NjguNzV8NjIyLjAxfDgwLjc0)"
     id="polygon4142" />
  <g
     id="g63893"
     transform="matrix(3.5850452,0,0,3.5850452,199.64149,191.99541)">
    <polygon
       id="polygon63778"
       points="715.1,626.2 715.1,224.7 367.5,24 367.5,24 19.8,224.7 19.8,626.2 367.5,826.9 "
       class="st0"
       style="fill:#164f86" />
    <path
       id="path63782"
       d="M 734.9,638 734.9,213.7 705.6,196.8 427.8,36.4 367.5,1.6 307.2,36.4 29.4,196.8 0.1,213.7 0.1,638 29.4,654.9 310.7,817.3 367.6,850.1 424.5,817.3 705.8,654.9 734.9,638 Z M 29.4,622.1 29.4,231.6 367.5,36.4 367.5,36.4 705.6,231.6 705.6,622 367.5,817.3 29.4,622.1 Z"
       class="st1"
       inkscape:connector-curvature="0"
       style="fill:#14275b" />
    <path
       id="path63784"
       d="M 367,637.9 367.9,637 367.7,637 C 367.5,637.3 367.2,637.6 367,637.9 Z"
       class="st2"
       inkscape:connector-curvature="0"
       style="fill:#e6b35a" />
    <path
       id="path63786"
       d="M 298.1,262.2 C 298.1,234.6 298.1,207 298.1,179.4 298,176.5 299,173.6 301,171.4 302.5,169.9 304.4,168.8 306.5,168.5 308.5,168.2 310.5,168.1 312.6,168.2 L 385.2,168.2 C 387.2,168.2 387.2,168.2 387.2,170.2 387.2,182.4 387.3,194.5 387.1,206.7 387.2,214 393.1,220 400.4,220 L 430.8,220 C 432.4,220 433.9,220 435.5,220 436.4,220 436.8,220.3 436.7,221.2 436.7,221.7 436.7,222.1 436.7,222.6 436.7,263.3 436.7,303.9 436.7,344.6 436.8,346.5 436.4,348.4 435.7,350.2 434,354.1 430.9,355.9 426.8,356.2 426.5,356.2 426.1,356.2 425.8,356.2 L 309,356.2 C 307,356.3 305.1,355.8 303.3,354.9 299.9,353 298.4,349.9 298.1,346.2 298.1,345.6 298.1,345 298.1,344.4 L 298.1,262.2 Z"
       class="st3"
       inkscape:connector-curvature="0"
       style="fill:#ffffff" />
    <path
       id="path63788"
       d="M 394.3,168.6 C 408.3,183.3 422.5,197.8 436.3,212.8 436.1,213.5 435.5,213.2 435.1,213.2 423.8,213.2 412.5,213.2 401.3,213.2 400.3,213.2 399.3,213.1 398.3,212.8 395.6,212.1 393.7,209.6 393.8,206.7 393.8,195.1 393.8,183.6 393.8,172.1 393.8,171.3 393.8,170.5 393.8,169.7 393.7,169.2 393.9,168.8 394.3,168.6 Z"
       class="st3"
       inkscape:connector-curvature="0"
       style="fill:#ffffff" />
    <path
       id="path63790"
       d="M 367.6,291.8 413.3,291.8 C 414,291.8 414.7,291.8 415.3,291.8 416.6,291.7 417.7,292.6 418,293.8 418.6,296 418.7,298.3 418.1,300.4 417.8,301.9 416.5,302.9 415,302.8 414.5,302.8 413.9,302.8 413.4,302.8 382.7,302.8 352.1,302.8 321.4,302.8 317.4,302.8 316.4,301.3 316.4,297.9 316.4,297.1 316.4,296.3 316.4,295.4 316.6,292.7 317.7,291.7 320.4,291.7 L 367.6,291.8 367.6,291.8 Z"
       class="st1"
       inkscape:connector-curvature="0"
       style="fill:#14275b" />
    <path
       id="path63792"
       d="M 415.3,317.5 C 417.1,317.7 417.9,318.4 418.2,320 418.7,322 418.7,324 418.2,326 417.9,327.5 416.6,328.5 415.1,328.5 414.8,328.5 414.4,328.5 414.1,328.5 L 320.9,328.5 C 320.4,328.5 319.9,328.5 319.5,328.5 318.1,328.4 316.9,327.4 316.7,326 316.4,324.1 316.4,322.1 316.7,320.1 317,318.4 317.9,317.7 319.8,317.6 320.4,317.8 321.1,317.9 321.8,317.8 L 413.3,317.8 C 413.9,317.8 414.6,317.8 415.3,317.5 Z"
       class="st1"
       inkscape:connector-curvature="0"
       style="fill:#14275b" />
    <path
       id="path63794"
       d="M 319.4,277.1 C 318,277.1 316.8,276 316.7,274.6 316.3,272.7 316.3,270.8 316.7,268.9 316.9,267.3 318.3,266.1 320,266.1 320.5,266.1 321.1,266.1 321.6,266.1 L 414.5,266.1 C 416.9,266.1 418.1,267 418.4,269.4 418.7,271.2 418.6,273.1 418.2,274.8 417.7,276.4 417.1,276.9 415.3,277.1 414.7,276.9 414,276.8 413.3,276.9 L 321.4,276.9 C 320.7,276.8 320,276.9 319.4,277.1 Z"
       class="st1"
       inkscape:connector-curvature="0"
       style="fill:#14275b" />
    <path
       id="path63796"
       d="M 349.2,251.6 322.3,251.6 C 321.8,251.6 321.3,251.6 320.9,251.6 317.6,251.6 316.6,250.5 316.5,247.1 316.5,245.9 316.5,244.8 316.6,243.6 316.9,241.5 318,240.5 320.1,240.4 320.5,240.4 320.9,240.4 321.3,240.4 L 376.8,240.4 C 377.2,240.4 377.6,240.4 378,240.4 380.3,240.5 381.4,241.6 381.4,243.8 381.4,245.3 381.4,246.8 381.4,248.3 381.4,250 380.1,251.4 378.4,251.5 378.4,251.5 378.4,251.5 378.4,251.5 377.8,251.6 377.2,251.5 376.6,251.5 367.4,251.6 358.3,251.7 349.2,251.6 Z"
       class="st1"
       inkscape:connector-curvature="0"
       style="fill:#14275b" />
    <path
       id="path63798"
       d="M 379,215.1 C 380.4,215.3 381.5,216.5 381.4,217.9 381.5,219.6 381.5,221.3 381.4,223 381.4,224.6 380.1,225.9 378.6,226 378,226 377.4,226 376.8,226 L 321.4,226 C 317.6,226 316.6,225 316.6,221.2 316.5,219.9 316.6,218.6 316.8,217.3 317.1,216.1 317.7,215.2 319.1,215.1 319.7,215.3 320.3,215.4 320.9,215.3 L 377.3,215.3 C 377.8,215.4 378.4,215.3 379,215.1 Z"
       class="st1"
       inkscape:connector-curvature="0"
       style="fill:#14275b" />
    <path
       id="path63800"
       d="M 319.4,277.1 C 320,276.5 320.7,276.7 321.3,276.7 352,276.7 382.6,276.7 413.3,276.7 413.9,276.7 414.7,276.5 415.2,277.1 414.5,277.1 413.8,277.2 413.2,277.2 L 321.4,277.2 C 320.7,277.2 320.1,277.1 319.4,277.1 Z"
       class="st4"
       inkscape:connector-curvature="0"
       style="fill:#ba3224" />
    <path
       id="path63802"
       d="M 415.3,317.5 C 414.8,318.1 414,317.9 413.4,317.9 L 321.7,317.9 C 321.1,317.9 320.3,318.1 319.8,317.5 320.5,317.5 321.3,317.4 322,317.4 L 413,317.4 C 413.8,317.4 414.5,317.5 415.3,317.5 Z"
       class="st5"
       inkscape:connector-curvature="0"
       style="fill:#b13728" />
    <path
       id="path63804"
       d="M 379,215.1 C 378.5,215.7 377.7,215.5 377.1,215.5 L 320.9,215.5 C 320.2,215.5 319.5,215.7 319,215.1 319.7,214.9 320.5,214.8 321.2,214.9 L 376.8,214.9 C 377.5,214.9 378.3,214.9 379,215.1 Z"
       class="st6"
       inkscape:connector-curvature="0"
       style="fill:#aa3729" />
    <path
       id="path63806"
       d="M 268.2,625.1 C 269.9,625.1 271.7,625.1 273.4,625.1 L 312.3,625.1 C 313,625.1 313.7,625.1 314.5,625.1 315.4,625.3 315.3,626 315.3,626.7 315.3,634.9 315.3,643.2 315.3,651.4 315.3,652.8 314.7,653.4 313.3,653.4 L 270.6,653.4 C 267.7,653.4 267.5,653.2 267.5,650.4 267.5,642.8 267.5,635.2 267.5,627.7 267.5,626.7 267.3,625.7 268.2,625.1 Z"
       class="st3"
       inkscape:connector-curvature="0"
       style="fill:#ffffff" />
    <path
       id="path63808"
       d="M 392.6,684.7 370.2,684.7 C 369.5,684.7 369.1,684.4 369.1,683.6 369.1,683.5 369.1,683.4 369.1,683.2 369.1,674.9 369.1,666.6 369.1,658.3 369.1,656.9 369.2,656.9 370.5,656.8 L 414,656.8 C 416,656.8 416,656.8 416,658.8 L 416,682.8 C 416,684.6 416,684.6 414.2,684.6 L 392.6,684.7 Z"
       class="st3"
       inkscape:connector-curvature="0"
       style="fill:#ffffff" />
    <path
       id="path63810"
       d="M 392.4,652.9 370,652.9 C 369.3,652.9 369,652.5 369.1,651.9 369.1,651.6 369.1,651.3 369.1,651 L 369.1,627.2 C 369.1,627 369.1,626.7 369.1,626.5 369,625.6 369.4,625.1 370.3,625.2 370.6,625.2 370.9,625.2 371.2,625.2 L 413.7,625.2 C 414.1,625.2 414.5,625.2 415,625.2 415.5,625.2 415.9,625.5 416,626 416,626.1 416,626.1 416,626.2 416,626.5 416,626.8 416,627.1 416,635 416,642.8 416,650.7 416,652.7 416.5,652.9 413.9,652.9 406.7,652.9 399.6,652.9 392.4,652.9 Z"
       class="st3"
       inkscape:connector-curvature="0"
       style="fill:#ffffff" />
    <path
       id="path63812"
       d="M 268.5,593.3 C 269,593.3 269.5,593.4 269.9,593.4 L 312.7,593.4 C 313.2,593.4 313.7,593.3 314.1,593.3 315,593.4 315.3,593.9 315.3,594.8 315.3,603.2 315.3,611.5 315.3,619.9 315.4,620.7 314.9,621.5 314,621.6 313.9,621.6 313.7,621.6 313.6,621.6 L 312,621.6 271,621.6 C 270.4,621.6 269.8,621.6 269.2,621.6 268.4,621.6 267.6,621 267.6,620.1 267.6,620.1 267.6,620 267.6,620 267.6,619.6 267.6,619.3 267.6,618.9 267.6,611.2 267.6,603.5 267.6,595.8 267.5,594.9 267.3,593.8 268.5,593.3 Z"
       class="st3"
       inkscape:connector-curvature="0"
       style="fill:#ffffff" />
    <path
       id="path63814"
       d="M 370.3,593.3 C 370.8,593.3 371.3,593.4 371.7,593.4 L 414.1,593.4 C 414.6,593.4 415.1,593.3 415.5,593.3 416.4,593.4 416.7,593.9 416.7,594.8 416.7,603.2 416.7,611.5 416.7,619.9 416.7,621.2 416,621.3 415,621.3 408.3,621.3 401.7,621.3 395,621.3 387,621.3 379,621.3 371,621.3 369.5,621.3 369,620.8 369,619.4 369,611.4 369,603.4 369,595.4 369.1,594.5 369,593.5 370.3,593.3 Z"
       class="st3"
       inkscape:connector-curvature="0"
       style="fill:#ffffff" />
    <path
       id="path63816"
       d="M 443.7,656.9 464.8,656.9 C 465.2,656.9 465.7,656.9 466.1,656.9 466.5,656.9 466.9,657.2 466.9,657.6 466.9,657.6 466.9,657.7 466.9,657.7 466.9,657.9 466.9,658.2 466.9,658.4 466.9,666.4 466.9,674.4 466.9,682.4 466.9,684.6 466.9,684.6 464.7,684.6 L 422,684.6 C 420,684.6 420,684.6 420,682.6 L 420,657.8 C 420,657.3 420.3,656.9 420.8,656.9 420.8,656.9 420.9,656.9 420.9,656.9 421.4,656.9 421.9,656.9 422.3,656.9 L 443.7,656.9 Z"
       class="st3"
       inkscape:connector-curvature="0"
       style="fill:#ffffff" />
    <path
       id="path63818"
       d="M 420.9,625.1 C 421.3,625.1 421.7,625.2 422.2,625.2 L 465.6,625.2 C 466,625.2 466.4,625.2 466.9,625.2 467.5,625.4 467.5,625.8 467.5,626.3 467.3,634.6 467.5,642.9 467.4,651.2 467.4,653.2 467.3,653.4 465.2,653.5 459.2,653.5 453.2,653.5 447.2,653.5 439.1,653.5 431.1,653.5 423,653.5 420.3,653.5 420.2,653.4 420.2,650.7 420.2,642.9 420.2,635.2 420.2,627.4 420.1,626.4 419.7,625.5 420.9,625.1 Z"
       class="st3"
       inkscape:connector-curvature="0"
       style="fill:#ffffff" />
    <path
       id="path63820"
       d="M 421.2,593.3 C 421.7,593.3 422.2,593.4 422.6,593.4 L 465,593.4 C 465.5,593.4 466,593.3 466.4,593.3 467.2,593.5 467.2,594.2 467.2,594.9 467.2,603.2 467.2,611.5 467.2,619.8 467.2,621.1 466.7,621.6 465.5,621.6 L 464,621.6 423.3,621.6 C 422.8,621.6 422.2,621.6 421.7,621.6 420.6,621.6 420.1,621.1 420.1,619.9 L 420.1,594.8 C 420,593.9 420.4,593.4 421.2,593.3 Z"
       class="st3"
       inkscape:connector-curvature="0"
       style="fill:#ffffff" />
    <path
       id="path63822"
       d="M 319.4,593.3 C 319.9,593.3 320.4,593.4 320.8,593.4 L 363.3,593.4 C 363.8,593.4 364.3,593.3 364.7,593.3 366,593.5 366,594.5 366,595.5 366,599.2 366,602.8 366,606.5 366,610.7 366,614.9 366,619.1 366,621.1 365.9,621.3 363.9,621.3 349.4,621.3 334.9,621.3 320.5,621.3 319.1,621.3 318.6,620.9 318.6,619.5 318.6,611.4 318.6,603.3 318.6,595.2 318.6,594.4 318.5,593.6 319.4,593.3 Z"
       class="st3"
       inkscape:connector-curvature="0"
       style="fill:#ffffff" />
    <path
       id="path63824"
       d="M 268.1,561.5 C 268.2,561.5 268.3,561.5 268.4,561.5 282.6,561.5 296.9,561.5 311.1,561.5 314.8,561.5 314.8,561.5 314.8,565.1 L 314.8,587.3 C 314.8,589.5 314.8,589.5 312.7,589.5 L 270.3,589.5 C 269.6,589.4 269,589.4 268.3,589.7 L 268,589.7 C 267.3,589.4 267.5,588.7 267.5,588.1 L 267.5,563.1 C 267.5,562.5 267.4,561.8 268.1,561.5 Z"
       class="st1"
       inkscape:connector-curvature="0"
       style="fill:#14275b" />
    <path
       id="path63826"
       d="M 392.5,589.3 370.1,589.3 C 369.5,589.3 369.1,589 369.1,588.3 369.1,587.9 369.1,587.6 369.1,587.2 L 369.1,563.8 C 369.1,563.4 369.1,563.1 369.1,562.7 369.1,562.1 369.4,561.8 370,561.8 L 371.3,561.8 413.9,561.8 C 416.1,561.8 416.1,561.8 416.1,563.9 L 416.1,587.2 C 416.1,587.6 416.1,588 416.1,588.5 416.1,588.9 415.8,589.3 415.4,589.3 415.4,589.3 415.3,589.3 415.3,589.3 414.8,589.3 414.3,589.3 413.9,589.3 L 392.5,589.3 Z"
       class="st1"
       inkscape:connector-curvature="0"
       style="fill:#14275b" />
    <path
       id="path63828"
       d="M 341.7,561.8 362.8,561.8 C 363.2,561.8 363.6,561.8 364.1,561.8 364.8,561.8 365.2,562.1 365.2,562.9 365.2,563.2 365.2,563.5 365.2,563.8 L 365.2,587.3 C 365.2,587.7 365.2,588 365.2,588.4 365.2,589.1 364.8,589.4 364.2,589.4 L 320,589.4 C 318.7,589.4 318.7,589.3 318.6,588.1 318.6,586.6 318.6,585.1 318.6,583.6 L 318.6,564.3 C 318.6,563.8 318.6,563.3 318.6,562.9 318.6,562.5 318.9,562 319.5,562 L 341.7,561.8 341.7,561.8 Z"
       class="st1"
       inkscape:connector-curvature="0"
       style="fill:#14275b" />
    <path
       id="path63830"
       d="M 466.8,562.1 C 466.6,563.2 466.5,564.2 466.6,565.3 466.6,573 466.5,580.7 466.7,588.4 466.7,588.9 466.5,589.2 466,589.2 465.5,589.2 465,589.2 464.6,589.2 L 422.2,589.2 C 419.9,589.2 420,589.3 420,587.1 L 420,563.9 C 420,563.5 420,563.1 420,562.6 420,562.2 420.3,561.8 420.7,561.8 420.7,561.8 420.8,561.8 420.8,561.8 L 421.9,561.8 465.2,561.8 C 465.8,561.8 466.3,561.9 466.8,562.1 Z"
       class="st1"
       inkscape:connector-curvature="0"
       style="fill:#14275b" />
    <path
       id="path63832"
       d="M 341.8,684.7 320,684.7 C 318.7,684.7 318.7,684.7 318.7,683.4 318.7,680.3 318.7,677.1 318.7,674 318.7,668.8 318.7,663.7 318.7,658.5 318.7,657 318.7,657 320.2,657 L 363.7,657 C 365.4,657 365.4,657 365.4,658.7 365.4,666.8 365.4,674.9 365.4,683.1 365.4,684.8 365.4,684.8 363.7,684.8 L 341.8,684.8 Z"
       class="st3"
       inkscape:connector-curvature="0"
       style="fill:#ffffff" />
    <path
       id="path63834"
       d="M 341.9,652.9 319.5,652.9 C 318.9,652.9 318.5,652.7 318.5,652 318.5,651.7 318.5,651.4 318.5,651.1 L 318.5,627.1 C 318.5,626.8 318.5,626.5 318.5,626.2 318.5,625.5 318.8,625.2 319.4,625.2 L 363.6,625.2 C 365.1,625.2 365.2,625.3 365.2,626.7 365.2,634.9 365.2,643.2 365.2,651.4 365.2,652.9 365.2,652.9 363.5,652.9 L 341.9,652.9 Z"
       class="st3"
       inkscape:connector-curvature="0"
       style="fill:#ffffff" />
    <path
       id="path63836"
       d="M 267.6,656.9 312,656.9 C 314.8,656.9 314.4,656.9 314.4,659.4 314.4,667.1 314.4,674.8 314.4,682.5 314.4,682.9 314.4,683.3 314.4,683.8 314.4,684.5 314.1,684.8 313.4,684.8 L 269.2,684.8 C 267.5,684.8 267.5,684.8 267.5,683.1 267.5,680.5 267.5,677.9 267.5,675.3 267.5,669.8 267.5,664.4 267.5,658.9 267.5,658.2 267.6,657.6 267.6,656.9 L 267.6,656.9 Z"
       class="st3"
       inkscape:connector-curvature="0"
       style="fill:#ffffff" />
    <path
       id="path63838"
       d="M 397,503.4 C 395.7,504.5 394.9,506.2 394.9,507.9 L 394.9,552.8 340.1,552.8 340.1,507.9 C 340.1,506.2 339.3,504.5 338,503.4 L 211.6,326 523.5,326 397,503.4 Z"
       class="st7"
       inkscape:connector-curvature="0"
       style="fill:#221819" />
    <path
       id="path63840"
       d="M 337.9,503.4 C 339.2,504.5 340,506.2 340,507.9 L 340,552.8 394.9,552.8 394.9,507.9 C 394.9,506.2 395.7,504.5 397,503.4 L 523.4,326 211.6,326 337.9,503.4 Z"
       class="st1"
       inkscape:connector-curvature="0"
       style="fill:#14275b" />
    <path
       id="path63842"
       d="M 499.6,326 373.2,503.4 C 371.9,504.5 371.1,506.2 371.1,507.9 L 371.1,515.1 340,531.1 340,552.9 394.9,552.9 394.9,507.9 C 394.9,506.2 395.7,504.5 397,503.4 L 523.4,326 499.6,326 Z"
       class="st8"
       inkscape:connector-curvature="0"
       style="opacity:0.1;fill:#1a171b;enable-background:new" />
    <g
       id="g63844"
       class="st9"
       style="opacity:0.93999999">
      <path
         id="path63846"
         d="M 208.8,419.4 C 208.8,409.3 208.6,400.5 208.1,392.5 L 221,392.5 221.5,409.4 222.2,409.4 C 225.9,397.9 234.8,390.6 244.7,390.6 246.1,390.6 247.5,390.8 248.9,391.1 L 248.9,405.9 C 247.3,405.5 245.6,405.3 243.9,405.4 233.5,405.4 226.1,413.8 224.1,425.5 223.7,427.9 223.5,430.3 223.4,432.8 L 223.4,478.7 208.8,478.7 208.8,419.4 Z"
         class="st3"
         inkscape:connector-curvature="0"
         style="fill:#ffffff" />
      <path
         id="path63848"
         d="M 266.8,438.4 C 267.1,459.5 279.9,468.3 294.6,468.3 305.2,468.3 311.5,466.3 317.1,463.9 L 319.6,475.1 C 314.4,477.6 305.5,480.4 292.6,480.4 267.6,480.4 252.7,463 252.7,437 252.7,411 267.1,390.6 290.8,390.6 317.3,390.6 324.3,415.3 324.3,431.1 324.3,433.5 324.1,436 323.8,438.4 L 266.8,438.4 Z M 310.1,427.2 C 310.3,417.2 306.2,401.8 289.6,401.8 274.7,401.8 268.1,416.4 267,427.2 L 310.1,427.2 Z"
         class="st3"
         inkscape:connector-curvature="0"
         style="fill:#ffffff" />
      <path
         id="path63850"
         d="M 382.2,478.6 381,467.8 380.5,467.8 C 374.9,475.9 365.6,480.7 355.7,480.6 339.3,480.6 330.9,468.3 330.9,455.9 330.9,435.1 348.3,423.7 379.7,423.9 L 379.7,422.1 C 379.7,415 377.9,402.2 361.2,402.2 353.7,402.2 346.3,404.5 340.1,408.6 L 336.7,398.3 C 343.4,393.7 353.1,390.7 363.4,390.7 388.2,390.7 394.3,408.7 394.3,425.9 L 394.3,458 C 394.2,464.9 394.6,471.8 395.6,478.6 L 382.2,478.6 Z M 380,434.7 C 363.9,434.3 345.6,437.4 345.6,454.1 345.6,464.2 352,469 359.5,469 368.5,469.1 376.5,463.2 379.1,454.6 379.6,453 379.9,451.3 379.9,449.6 L 379.9,434.7 Z"
         class="st3"
         inkscape:connector-curvature="0"
         style="fill:#ffffff" />
      <path
         id="path63852"
         d="M 482.8,352.4 482.8,456.4 C 482.8,464 483,472.8 483.5,478.6 L 470.2,478.6 469.5,463.7 469.2,463.7 C 464.7,473.3 454.8,480.6 441.5,480.6 421.9,480.6 406.8,463 406.8,436.9 406.6,408.3 423.4,390.7 443.2,390.7 455.6,390.7 464,396.9 467.7,403.8 L 468,403.8 468,352.4 482.8,352.4 Z M 468,427.6 C 468,425.4 467.8,423.2 467.3,421 465.1,411 457.1,402.9 446,402.9 430.7,402.9 421.7,417.1 421.7,436.1 421.7,453.5 429.7,467.9 445.7,467.9 455.6,467.9 464.7,461 467.3,449.2 467.8,447 468,444.7 468,442.4 L 468,427.6 Z"
         class="st3"
         inkscape:connector-curvature="0"
         style="fill:#ffffff" />
      <path
         id="path63854"
         d="M 501.9,419.4 C 501.9,409.3 501.7,400.5 501.2,392.5 L 514.1,392.5 514.6,409.4 515.3,409.4 C 519,397.9 527.9,390.6 537.8,390.6 539.2,390.6 540.6,390.8 542,391.1 L 542,405.9 C 540.4,405.5 538.7,405.3 537,405.4 526.6,405.4 519.2,413.8 517.2,425.5 516.8,427.9 516.6,430.3 516.5,432.8 L 516.5,478.7 501.9,478.7 501.9,419.4 Z"
         class="st3"
         inkscape:connector-curvature="0"
         style="fill:#ffffff" />
    </g>
    <path
       id="path63856"
       d="M 365.5,797.9 370,802.4 C 371,803.4 371.9,804.3 372.7,805.3 L 372.8,805.3 C 372.4,804.1 372.1,802.8 371.8,801.5 L 370.4,795.2 372,794.3 376.7,798.6 C 377.8,799.6 378.8,800.6 379.6,801.5 L 379.7,801.5 C 379.2,800.2 378.8,799 378.5,797.7 L 376.9,791.6 378.8,790.5 381.5,802.9 379.8,803.9 375.3,799.8 C 374.3,798.8 373.3,798 372.4,796.9 L 372.4,796.9 C 372.8,798.2 373.2,799.5 373.5,800.9 L 374.7,806.9 373,807.9 363.8,799.2 365.5,797.9 Z"
       class="st3"
       inkscape:connector-curvature="0"
       style="fill:#ffffff" />
    <path
       id="path63858"
       d="M 381.7,788.5 386.2,793 C 387.2,794 388.1,794.9 388.9,795.9 L 389,795.9 C 388.6,794.7 388.3,793.4 388,792.1 L 386.6,785.8 388.2,784.9 392.9,789.2 C 394,790.2 395,791.2 395.8,792.1 L 395.9,792.1 C 395.4,790.8 395,789.6 394.7,788.3 L 393.1,782.1 395,781 397.7,793.4 396,794.4 391.5,790.3 C 390.5,789.3 389.5,788.5 388.6,787.4 L 388.6,787.4 C 389,788.7 389.4,790 389.7,791.4 L 390.9,797.4 389.2,798.4 380,789.8 381.7,788.5 Z"
       class="st3"
       inkscape:connector-curvature="0"
       style="fill:#ffffff" />
    <path
       id="path63860"
       d="M 397.8,779.1 402.3,783.6 C 403.3,784.6 404.2,785.5 405,786.5 L 405.1,786.5 C 404.7,785.3 404.4,784 404.1,782.7 L 402.7,776.4 404.3,775.5 409,779.8 C 410.1,780.8 411.1,781.8 411.9,782.7 L 412,782.7 C 411.5,781.4 411.1,780.2 410.8,778.9 L 409.2,772.8 411.1,771.7 413.8,784.1 412.1,785.1 407.6,781 C 406.6,780 405.6,779.2 404.7,778.1 L 404.7,778.1 C 405.1,779.4 405.5,780.7 405.8,782.1 L 407,788.1 405.3,789.1 396.1,780.5 397.8,779.1 Z"
       class="st3"
       inkscape:connector-curvature="0"
       style="fill:#ffffff" />
    <path
       id="path63862"
       d="M 417.1,780.3 C 416.7,779.6 417,778.7 417.7,778.3 418.4,777.9 419.3,778.2 419.7,778.9 420.1,779.6 419.8,780.5 419.1,780.9 418.5,781.4 417.6,781.1 417.1,780.3 417.1,780.4 417.1,780.4 417.1,780.3 Z"
       class="st3"
       inkscape:connector-curvature="0"
       style="fill:#ffffff" />
    <path
       id="path63864"
       d="M 418.5,771.4 C 417.8,770.2 417.1,769.1 416.5,768.2 L 418.2,767.2 419.5,769.2 419.6,769.2 C 419.2,767.7 419.8,766.1 421.2,765.2 421.4,765.1 421.6,765 421.8,765 L 422.8,766.8 C 422.6,766.9 422.3,767 422.1,767.1 420.8,767.9 420.3,769.6 421,771 421.1,771.3 421.3,771.6 421.4,771.9 L 424.6,777.5 422.7,778.6 418.5,771.4 Z"
       class="st3"
       inkscape:connector-curvature="0"
       style="fill:#ffffff" />
    <path
       id="path63866"
       d="M 428.4,772.7 C 429.4,772.7 430.4,772.5 431.4,772 432.8,771.2 433,770.1 432.5,769.3 432,768.5 431.1,768.2 429.4,768.5 427.1,768.9 425.6,768.4 424.9,767.2 423.9,765.5 424.5,763.3 426.7,762 427.6,761.5 428.6,761.2 429.7,761.2 L 430,762.9 C 429.1,762.9 428.3,763.1 427.5,763.5 426.6,763.9 426.2,764.9 426.5,765.8 426.5,765.8 426.5,765.9 426.6,765.9 427.1,766.8 428,766.8 429.6,766.5 431.8,766.1 433.3,766.5 434.2,768.1 435.3,769.9 434.6,772.1 432.1,773.5 431.1,774.1 429.9,774.5 428.7,774.5 L 428.4,772.7 Z"
       class="st3"
       inkscape:connector-curvature="0"
       style="fill:#ffffff" />
    <path
       id="path63868"
       d="M 432.8,754.7 434.6,757.7 437.3,756.1 438.1,757.6 435.4,759.2 438.7,764.8 C 439.5,766.1 440.2,766.6 441.3,766 441.7,765.8 442,765.5 442.3,765.2 L 443.2,766.6 C 442.8,767.1 442.3,767.5 441.7,767.8 441,768.3 440,768.4 439.2,768.2 438.2,767.8 437.3,766.9 436.9,765.9 L 433.6,760.2 432,761.1 431.1,759.6 432.7,758.7 431.2,756.2 432.8,754.7 Z"
       class="st3"
       inkscape:connector-curvature="0"
       style="fill:#ffffff" />
    <path
       id="path63870"
       d="M 452.5,757.4 C 453.1,758.5 453.7,759.4 454.2,760.2 L 452.5,761.2 451.4,759.5 451.4,759.5 C 451.4,761.2 450.5,762.7 449.1,763.5 447.5,764.5 445,764.7 442.8,761 L 439.2,754.9 441.1,753.8 444.5,759.6 C 445.6,761.6 447,762.6 448.8,761.6 450.3,760.8 450.8,758.9 449.9,757.4 449.9,757.4 449.9,757.4 449.9,757.3 L 446.2,750.9 448.1,749.8 452.5,757.4 Z"
       class="st3"
       inkscape:connector-curvature="0"
       style="fill:#ffffff" />
    <path
       id="path63872"
       d="M 457.5,737.8 464.9,750.4 C 465.4,751.3 466.1,752.4 466.6,753.1 L 464.9,754.1 463.8,752.3 463.8,752.3 C 463.9,754 462.9,755.6 461.4,756.4 458.9,757.9 455.7,756.9 453.8,753.7 451.8,750.2 452.7,746.8 455.2,745.4 456.4,744.6 458,744.5 459.3,745.2 L 459.3,745.2 455.7,739 457.5,737.8 Z M 460.9,748 C 460.7,747.7 460.6,747.5 460.4,747.2 459.4,746.1 457.7,745.8 456.4,746.6 454.4,747.8 454.3,750.2 455.6,752.5 456.8,754.6 458.9,755.8 460.9,754.6 462.2,753.8 462.9,752.2 462.4,750.7 462.3,750.4 462.2,750.1 462,749.8 L 460.9,748 Z"
       class="st3"
       inkscape:connector-curvature="0"
       style="fill:#ffffff" />
    <path
       id="path63874"
       d="M 463.9,736.7 C 464.3,737.4 464.1,738.2 463.4,738.6 462.7,739 461.9,738.8 461.5,738.1 461.1,737.5 461.3,736.6 461.9,736.3 461.9,736.3 461.9,736.3 462,736.3 462.6,735.8 463.4,736 463.9,736.7 463.8,736.6 463.9,736.6 463.9,736.7 Z M 469.5,751.3 463.4,740.8 465.3,739.7 471.4,750.2 469.5,751.3 Z"
       class="st3"
       inkscape:connector-curvature="0"
       style="fill:#ffffff" />
    <path
       id="path63876"
       d="M 481,737.5 C 483.2,741.4 481.5,744.6 479,746.1 476.2,747.8 472.8,746.9 470.9,743.6 468.9,740.1 470,736.7 472.9,735 475.8,733.3 479.1,734.3 481,737.5 Z M 472.8,742.5 C 474.1,744.8 476.4,745.7 478.3,744.7 480.2,743.7 480.5,741.2 479.1,738.8 478.1,737 475.9,735.3 473.6,736.6 471.3,737.9 471.6,740.5 472.8,742.5 L 472.8,742.5 Z"
       class="st3"
       inkscape:connector-curvature="0"
       style="fill:#ffffff" />
    <path
       id="path63878"
       d="M 484.8,740.9 C 484.4,740.2 484.7,739.3 485.4,738.9 486.1,738.5 487,738.8 487.4,739.5 487.8,740.2 487.5,741.1 486.8,741.5 486.2,741.9 485.3,741.7 484.8,740.9 484.9,740.9 484.9,740.9 484.8,740.9 Z"
       class="st3"
       inkscape:connector-curvature="0"
       style="fill:#ffffff" />
    <path
       id="path63880"
       d="M 497.6,734.4 C 496.9,735.4 496,736.2 495,736.8 491.9,738.6 488.5,737.7 486.7,734.5 484.9,731.6 485.7,727.8 488.5,726 488.7,725.9 488.9,725.8 489.1,725.7 490,725.2 491,724.8 492.1,724.7 L 492.5,726.4 C 491.6,726.4 490.8,726.7 490,727.2 487.6,728.6 487.3,731.1 488.6,733.3 490,735.7 492.4,736.3 494.5,735.1 495.3,734.6 496,734 496.5,733.2 L 497.6,734.4 Z"
       class="st3"
       inkscape:connector-curvature="0"
       style="fill:#ffffff" />
    <path
       id="path63882"
       d="M 506.3,722.8 C 508.5,726.7 506.9,729.9 504.3,731.4 501.5,733.1 498.1,732.2 496.2,728.9 494.2,725.4 495.2,722 498.2,720.3 501.2,718.6 504.5,719.6 506.3,722.8 Z M 498.1,727.7 C 499.4,730 501.8,730.9 503.6,729.9 505.4,728.9 505.8,726.3 504.4,724 503.4,722.2 501.2,720.5 498.9,721.8 496.6,723.1 496.9,725.7 498.1,727.7 L 498.1,727.7 Z"
       class="st3"
       inkscape:connector-curvature="0"
       style="fill:#ffffff" />
    <path
       id="path63884"
       d="M 507.4,719.1 C 506.8,718 506.2,717.1 505.7,716.3 L 507.4,715.3 508.5,716.9 508.6,716.9 C 508.5,715.3 509.4,713.8 510.8,713.1 512.1,712.3 513.8,712.5 515,713.5 L 515,713.5 C 515,712.8 515.1,712.1 515.4,711.5 515.8,710.6 516.4,709.9 517.3,709.4 518.7,708.6 521.3,708.3 523.4,711.9 L 527,718.1 525.1,719.2 521.7,713.3 C 520.5,711.3 519.1,710.5 517.6,711.4 516.6,712 516.1,713.2 516.4,714.4 516.5,714.8 516.6,715.1 516.8,715.4 L 520.6,721.9 518.7,723 515,716.7 C 514,715 512.6,714.3 511.1,715.1 510,715.8 509.5,717.1 509.9,718.4 510,718.8 510.1,719.1 510.3,719.4 L 514,725.7 512.1,726.8 507.4,719.1 Z"
       class="st3"
       inkscape:connector-curvature="0"
       style="fill:#ffffff" />
  </g>
  <path
     inkscape:connector-curvature="0"
     style="fill:#cccccc;stroke:none;stroke-width:6.83020306;stroke-linecap:square;stroke-linejoin:miter;stroke-miterlimit:10;stroke-dasharray:none"
     clip-path="url(#cpMC4wMHw0NjguNzV8NjIyLjAxfDgwLjc0)"
     d="M 1517.176,3198.9116 2800.9341,2458.8142"
     id="polygon4315" />
  <style
     id="style4879"
     type="text/css">
	.st0{fill:#ED7D15;}
	.st1{opacity:0.25;fill:url(#SVGID_1_);enable-background:new    ;}
	.st2{fill:#AC5D12;}
	.st3{fill:#E6B35A;}
	.st4{opacity:0.94;}
	.st5{fill:#FFFFFF;}
</style>
  <style
     id="style63776"
     type="text/css">
	.st0{fill:#164F86;}
	.st1{fill:#14275B;}
	.st2{fill:#E6B35A;}
	.st3{fill:#FFFFFF;}
	.st4{fill:#BA3224;}
	.st5{fill:#B13728;}
	.st6{fill:#AA3729;}
	.st7{fill:#221819;}
	.st8{opacity:0.1;fill:#1A171B;enable-background:new    ;}
	.st9{opacity:0.94;}
</style>
</svg>
