<?xml version="1.0" encoding="UTF-8" standalone="no"?>
<svg
   xmlns:dc="http://purl.org/dc/elements/1.1/"
   xmlns:cc="http://creativecommons.org/ns#"
   xmlns:rdf="http://www.w3.org/1999/02/22-rdf-syntax-ns#"
   xmlns:svg="http://www.w3.org/2000/svg"
   xmlns="http://www.w3.org/2000/svg"
   xmlns:sodipodi="http://sodipodi.sourceforge.net/DTD/sodipodi-0.dtd"
   xmlns:inkscape="http://www.inkscape.org/namespaces/inkscape"
   width="30.342916in"
   height="34.373737in"
   viewBox="0 0 3034.2917 3437.3736"
   id="svg2"
   version="1.1"
   inkscape:version="0.92.4 (f8dce91, 2019-08-02)"
   sodipodi:docname="tidyverse.svg"
   inkscape:export-filename="/home/khench/Schreibtisch/PhD/data/images/hypoSymb2/logos/hypoimg.png"
   inkscape:export-xdpi="9.21"
   inkscape:export-ydpi="9.21">
  <sodipodi:namedview
     pagecolor="#ffffff"
     bordercolor="#666666"
     borderopacity="1"
     objecttolerance="10"
     gridtolerance="10"
     guidetolerance="10"
     inkscape:pageopacity="0"
     inkscape:pageshadow="2"
     inkscape:window-width="1440"
     inkscape:window-height="847"
     id="namedview15"
     showgrid="false"
     inkscape:zoom="0.12072372"
     inkscape:cx="2101.1229"
     inkscape:cy="1697.2779"
     inkscape:window-x="0"
     inkscape:window-y="25"
     inkscape:window-maximized="1"
     inkscape:current-layer="svg2"
     fit-margin-top="2"
     fit-margin-left="2"
     fit-margin-right="2"
     fit-margin-bottom="2" />
  <metadata
     id="metadata9">
    <rdf:RDF>
      <cc:Work
         rdf:about="">
        <dc:format>image/svg+xml</dc:format>
        <dc:type
           rdf:resource="http://purl.org/dc/dcmitype/StillImage" />
        <dc:title />
      </cc:Work>
    </rdf:RDF>
  </metadata>
  <defs
     id="defs7">
    <style
       type="text/css"
       id="style4286"><![CDATA[
    line, polyline, polygon, path, rect, circle {
      fill: none;
      stroke: #000000;
      stroke-linecap: round;
      stroke-linejoin: round;
      stroke-miterlimit: 10.00;
    }
  ]]></style>
    <filter
       inkscape:collect="always"
       style="color-interpolation-filters:sRGB"
       id="filter4145"
       x="-0.12927495"
       width="1.2585499"
       y="-0.11195597"
       height="1.2239119">
      <feGaussianBlur
         inkscape:collect="always"
         stdDeviation="22.953306"
         id="feGaussianBlur4147" />
    </filter>
    <style
       id="style5495">.cls-1{fill:#f2f2f2;}.cls-2{fill:#fff;}.cls-3{fill:#e6b35a;}.cls-4{fill:#424242;}.cls-5{fill:#51a7f9;}.cls-6{fill:#a8d6ff;}.cls-7{fill:#0365c0;}.cls-8{fill:#164f86;}.cls-9{fill:#002452;}.cls-10{fill:#000643;}</style>
  </defs>
  <polygon
     transform="matrix(6.0253361,0,0,6.0165634,104.95773,-395.38336)"
     points="234.38,105.35 447.44,228.36 447.44,474.39 234.38,597.4 21.31,474.39 21.31,228.36 "
     style="fill:#000000;fill-opacity:1;stroke:#000000;stroke-width:11.0724535;stroke-linecap:square;stroke-linejoin:miter;stroke-miterlimit:10;stroke-dasharray:none;stroke-opacity:1;filter:url(#filter4145)"
     clip-path="url(#cpMC4wMHw0NjguNzV8NjIyLjAxfDgwLjc0)"
     id="polygon4142" />
  <g
     id="g2183"
     transform="matrix(3.6291054,0,0,3.6291054,178.00571,171.78073)"
     style="stroke-width:0.28703123">
    <polygon
       id="polygon1569"
       points="369,25 21.4,225.7 21.4,627 369,827.7 716.6,627 716.6,225.7 "
       class="st0"
       style="fill:#141227;stroke-width:0.28703123" />
    <g
       id="g1589"
       class="st1"
       style="opacity:0.93999999;stroke-width:0.28703123">
	<path
   id="path1571"
   d="M 96.5,367.7 V 392.4 H 117.6 V 404.3 H 96.5 V 450.7 C 96.5,461.4 99.4,467.4 107.6,467.4 110.5,467.4 113.4,467.1 116.2,466.3 L 116.9,478 C 114.1,479.2 109.5,480.1 103.8,480.1 96.9,480.1 91.4,477.8 87.9,473.5 83.7,468.9 82.2,461.2 82.2,451.1 V 404.2 H 69.5 V 392.3 H 82.1 V 371.7 Z"
   class="st2"
   inkscape:connector-curvature="0"
   style="fill:#ffffff;stroke-width:0.28703123" />

	<path
   id="path1573"
   d="M 147.3,368.2 C 147.6,373.2 143.9,377.5 138.9,377.8 138.6,377.8 138.2,377.8 137.9,377.8 132.7,377.8 129,373.5 129,368.2 129,362.7 132.9,358.4 138.2,358.4 143.8,358.5 147.3,362.7 147.3,368.2 Z M 130.9,478.5 V 392.5 H 145.7 V 478.5 Z"
   class="st2"
   inkscape:connector-curvature="0"
   style="fill:#ffffff;stroke-width:0.28703123" />

	<path
   id="path1575"
   d="M 236.9,352.2 V 456.2 C 236.9,463.8 237.1,472.6 237.6,478.4 H 224.4 L 223.7,463.5 H 223.4 C 218.9,473.1 209,480.4 195.7,480.4 176.1,480.4 161,462.8 161,436.7 160.8,408.1 177.6,390.5 197.4,390.5 209.8,390.5 218.2,396.7 221.9,403.7 H 222.2 V 352.3 H 236.9 Z M 222.1,427.4 C 222.1,425.2 221.9,423 221.4,420.8 219.2,410.8 211.2,402.7 200.1,402.7 184.8,402.7 175.8,416.9 175.8,435.9 175.8,453.3 183.9,467.7 199.8,467.7 209.7,467.7 218.7,460.8 221.4,449 221.9,446.8 222.1,444.5 222.1,442.2 Z"
   class="st2"
   inkscape:connector-curvature="0"
   style="fill:#ffffff;stroke-width:0.28703123" />

	<path
   id="path1577"
   d="M 263.4,392.4 281.2,443.2 C 283.1,448.9 285.1,455.6 286.4,460.8 H 286.7 C 288.2,455.6 289.9,449.1 291.9,442.8 L 308,392.4 H 323.6 L 301.5,453.7 C 290.9,483.2 283.7,498.3 273.7,507.6 266.5,514.4 259.3,517 255.6,517.7 L 251.9,504.6 C 256.7,502.9 261.1,500.3 264.8,497 270.2,492.2 274.5,486.3 277.2,479.6 277.8,478.4 278.2,477.2 278.4,475.9 278.3,474.5 277.9,473.1 277.4,471.8 L 247.4,392.5 Z"
   class="st2"
   inkscape:connector-curvature="0"
   style="fill:#ffffff;stroke-width:0.28703123" />

	<path
   id="path1579"
   d="M 341.4,392.4 357.3,440.8 C 360,448.6 362.2,455.7 363.8,462.8 H 364.3 C 366.2,455.7 368.5,448.6 371.2,440.8 L 387,392.4 H 402.4 L 370.5,478.4 H 356.4 L 325.5,392.4 Z"
   class="st2"
   inkscape:connector-curvature="0"
   style="fill:#ffffff;stroke-width:0.28703123" />

	<path
   id="path1581"
   d="M 419.5,438.3 C 419.8,459.5 432.6,468.2 447.3,468.2 457.9,468.2 464.2,466.2 469.8,463.7 L 472.3,474.9 C 467.1,477.4 458.2,480.2 445.3,480.2 420.3,480.2 405.4,462.8 405.4,436.8 405.4,410.8 419.8,390.4 443.5,390.4 470,390.4 477,415.1 477,431 477,433.4 476.8,435.9 476.5,438.3 Z M 462.8,427.1 C 463,417.1 458.9,401.7 442.3,401.7 427.4,401.7 420.8,416.3 419.7,427.1 Z"
   class="st2"
   inkscape:connector-curvature="0"
   style="fill:#ffffff;stroke-width:0.28703123" />

	<path
   id="path1583"
   d="M 491.9,419.2 C 491.9,409.1 491.7,400.4 491.2,392.4 H 504.1 L 504.6,409.3 H 505.3 C 509,397.7 517.9,390.4 527.8,390.4 529.2,390.4 530.6,390.6 532,391 V 405.8 C 530.4,405.4 528.7,405.2 527,405.3 516.6,405.3 509.2,413.7 507.2,425.4 506.8,427.8 506.6,430.2 506.5,432.7 V 478.6 H 491.9 Z"
   class="st2"
   inkscape:connector-curvature="0"
   style="fill:#ffffff;stroke-width:0.28703123" />

	<path
   id="path1585"
   d="M 541.4,462.5 C 547.2,466.3 553.9,468.5 560.9,468.7 571.6,468.7 576.7,463 576.7,455.9 576.7,448.4 572.5,444.4 561.6,440.1 547,434.6 540.1,426.1 540.1,415.7 540.1,401.8 550.7,390.5 568.1,390.5 575.1,390.4 582,392.3 588,395.8 L 584.3,407.2 C 579.4,404 573.6,402.2 567.7,402.2 559,402.2 554.1,407.5 554.1,413.9 554.1,421 559,424.2 569.5,428.5 583.6,434.2 590.8,441.7 590.8,454.5 590.8,469.6 579.7,480.3 560.5,480.3 551.6,480.3 543.4,478 537.7,474.4 Z"
   class="st2"
   inkscape:connector-curvature="0"
   style="fill:#ffffff;stroke-width:0.28703123" />

	<path
   id="path1587"
   d="M 614.7,438.3 C 615,459.5 627.8,468.2 642.5,468.2 653.1,468.2 659.4,466.2 665,463.7 L 667.5,474.9 C 662.3,477.4 653.4,480.2 640.5,480.2 615.5,480.2 600.6,462.8 600.6,436.8 600.6,410.8 615,390.4 638.7,390.4 665.2,390.4 672.2,415.1 672.2,430.9 672.2,433.3 672,435.8 671.7,438.2 H 614.7 Z M 658,427.1 C 658.2,417.1 654.1,401.7 637.5,401.7 622.6,401.7 616,416.3 614.8,427.1 Z"
   class="st2"
   inkscape:connector-curvature="0"
   style="fill:#ffffff;stroke-width:0.28703123" />

</g>
    <path
       id="path1591"
       d="M 371.8,626.8 C 372.1,626.5 372.4,626.2 372.7,625.9 H 372.4 C 372.3,626.2 372,626.5 371.8,626.8 Z"
       class="st3"
       inkscape:connector-curvature="0"
       style="fill:#e6b35a;stroke-width:0.28703123" />
    <polyline
       id="polyline1593"
       points="335.8,57.9 342.1,54.3 348.5,57.9 348.5,65.2 342.1,68.8 335.8,65.2 335.8,57.9 "
       class="st4"
       style="opacity:0.8;fill:#f2f2f2;stroke-width:0.28703123;enable-background:new" />
    <polyline
       id="polyline1595"
       points="284.2,113.7 288.8,111.1 293.3,113.7 293.3,118.9 288.8,121.5 284.2,118.9 284.2,113.7 "
       class="st4"
       style="opacity:0.8;fill:#f2f2f2;stroke-width:0.28703123;enable-background:new" />
    <polyline
       id="polyline1597"
       points="333.8,172.2 340.1,168.6 346.5,172.2 346.5,179.5 340.1,183.1 333.8,179.5 333.8,172.2 "
       class="st4"
       style="opacity:0.8;fill:#f2f2f2;stroke-width:0.28703123;enable-background:new" />
    <polyline
       id="polyline1599"
       points="397.8,203.2 404.1,199.6 410.5,203.2 410.5,210.5 404.1,214.1 397.8,210.5 397.8,203.2 "
       class="st5"
       style="fill:#f7a238;stroke-width:0.28703123" />
    <polyline
       id="polyline1601"
       points="447.1,90.4 453.4,86.8 459.8,90.4 459.8,97.7 453.4,101.3 447.1,97.7 447.1,90.4 "
       class="st4"
       style="opacity:0.8;fill:#f2f2f2;stroke-width:0.28703123;enable-background:new" />
    <polyline
       id="polyline1603"
       points="425.6,166.1 432,162.6 438.3,166.2 438.3,173.5 432,177 425.6,173.4 425.6,166.1 "
       class="st4"
       style="opacity:0.8;fill:#f2f2f2;stroke-width:0.28703123;enable-background:new" />
    <polygon
       id="polygon1605"
       points="332.5,225.7 326.1,229.3 326.1,236.6 332.5,240.2 338.7,236.6 338.7,229.3 "
       class="st6"
       style="fill:#0088c5;stroke-width:0.28703123" />
    <polyline
       id="polyline1607"
       points="128.8,212.2 135.1,208.6 141.4,212.2 141.4,219.5 135.1,223.1 128.8,219.5 128.8,212.2 "
       class="st4"
       style="opacity:0.8;fill:#f2f2f2;stroke-width:0.28703123;enable-background:new" />
    <polyline
       id="polyline1609"
       points="240,244.7 246.4,241.1 252.7,244.7 252.7,252 246.4,255.6 240,252 240,244.7 "
       class="st4"
       style="opacity:0.8;fill:#f2f2f2;stroke-width:0.28703123;enable-background:new" />
    <polyline
       id="polyline1611"
       points="475.1,289.3 481.5,285.7 487.8,289.3 487.8,296.6 481.5,300.2 475.1,296.6 475.1,289.3 "
       class="st7"
       style="fill:#7fb036;stroke-width:0.28703123" />
    <polyline
       id="polyline1613"
       points="103.1,516 109.4,512.4 115.8,516 115.8,523.3 109.4,526.9 103.1,523.3 103.1,516 "
       class="st4"
       style="opacity:0.8;fill:#f2f2f2;stroke-width:0.28703123;enable-background:new" />
    <polyline
       id="polyline1615"
       points="143,541.2 153.3,535.4 163.5,541.2 163.5,553 153.3,558.8 143,553 143,541.2 "
       class="st8"
       style="fill:#f9ecc6;stroke-width:0.28703123" />
    <polyline
       id="polyline1617"
       points="221.1,575.4 224.3,573.6 227.6,575.4 227.6,579.1 224.3,580.9 221.1,579.1 221.1,575.4 "
       class="st9"
       style="fill:#fff34d;stroke-width:0.28703123" />
    <polyline
       id="polyline1619"
       points="214.9,522.2 221.2,518.7 227.6,522.3 227.6,529.6 221.2,533.1 214.9,529.5 214.9,522.2 "
       class="st4"
       style="opacity:0.8;fill:#f2f2f2;stroke-width:0.28703123;enable-background:new" />
    <polyline
       id="polyline1621"
       points="44.3,579.8 47.5,578 50.6,579.8 50.6,583.4 47.5,585.2 44.3,583.4 44.3,579.8 "
       class="st4"
       style="opacity:0.8;fill:#f2f2f2;stroke-width:0.28703123;enable-background:new" />
    <polyline
       id="polyline1623"
       points="126.5,621 136.7,615.3 146.9,621.1 146.9,632.8 136.7,638.5 126.5,632.8 126.5,621 "
       class="st10"
       style="fill:#b57ab4;stroke-width:0.28703123" />
    <polyline
       id="polyline1625"
       points="107.1,560.9 111.5,558.4 115.9,560.9 115.9,566 111.5,568.5 107.1,566 107.1,560.9 "
       class="st4"
       style="opacity:0.8;fill:#f2f2f2;stroke-width:0.28703123;enable-background:new" />
    <polyline
       id="polyline1627"
       points="35.4,410.1 39.2,408 43.1,410.1 43.1,414.5 39.2,416.7 35.4,414.5 35.4,410.1 "
       class="st4"
       style="opacity:0.8;fill:#f2f2f2;stroke-width:0.28703123;enable-background:new" />
    <polyline
       id="polyline1629"
       points="45.4,324.2 51.8,320.6 58.1,324.2 58.1,331.5 51.8,335.1 45.4,331.5 45.4,324.2 "
       class="st4"
       style="opacity:0.8;fill:#f2f2f2;stroke-width:0.28703123;enable-background:new" />
    <polyline
       id="polyline1631"
       points="270.1,216.5 280.3,210.8 290.5,216.6 290.5,228.3 280.3,234.1 270.1,228.3 270.1,216.5 "
       class="st9"
       style="fill:#fff34d;stroke-width:0.28703123" />
    <polyline
       id="polyline1633"
       points="595.2,274.6 600.8,271.4 606.4,274.6 606.4,281.1 600.8,284.3 595.2,281.1 595.2,274.6 "
       class="st4"
       style="opacity:0.8;fill:#f2f2f2;stroke-width:0.28703123;enable-background:new" />
    <polyline
       id="polyline1635"
       points="312.6,283 323,277.1 333.4,283 333.4,295 323,300.8 312.6,294.9 312.6,283 "
       class="st11"
       style="fill:#db1f26;stroke-width:0.28703123" />
    <polyline
       id="polyline1637"
       points="468.6,260.6 474.9,257 481.3,260.6 481.3,267.9 474.9,271.5 468.6,267.9 468.6,260.6 "
       class="st4"
       style="opacity:0.8;fill:#f2f2f2;stroke-width:0.28703123;enable-background:new" />
    <polyline
       id="polyline1639"
       points="295.6,524.5 301.9,521 308.3,524.6 308.3,531.9 301.9,535.4 295.6,531.8 295.6,524.5 "
       class="st4"
       style="opacity:0.8;fill:#f2f2f2;stroke-width:0.28703123;enable-background:new" />
    <polyline
       id="polyline1641"
       points="345.5,571.2 349.7,568.8 353.9,571.2 353.9,576.1 349.7,578.4 345.5,576 345.5,571.2 "
       class="st11"
       style="fill:#db1f26;stroke-width:0.28703123" />
    <polyline
       id="polyline1643"
       points="409.5,602.2 413.7,599.8 418,602.2 418,607.1 413.7,609.5 409.5,607 409.5,602.2 "
       class="st4"
       style="opacity:0.8;fill:#f2f2f2;stroke-width:0.28703123;enable-background:new" />
    <polyline
       id="polyline1645"
       points="398,509.1 405.1,505.1 412.4,509.2 412.4,517.5 405.1,521.5 398,517.4 398,509.1 "
       class="st4"
       style="opacity:0.8;fill:#f2f2f2;stroke-width:0.28703123;enable-background:new" />
    <polyline
       id="polyline1647"
       points="441.9,530.5 451.9,524.8 461.8,530.5 461.8,541.9 451.9,547.5 441.9,541.9 441.9,530.5 "
       class="st4"
       style="opacity:0.8;fill:#f2f2f2;stroke-width:0.28703123;enable-background:new" />
    <polyline
       id="polyline1649"
       points="545.1,313 551.4,309.4 557.8,313 557.8,320.3 551.4,323.9 545.1,320.3 545.1,313 "
       class="st4"
       style="opacity:0.8;fill:#f2f2f2;stroke-width:0.28703123;enable-background:new" />
    <polyline
       id="polyline1651"
       points="656.7,352.4 667.1,346.5 677.5,352.4 677.5,364.4 667.1,370.3 656.7,364.4 656.7,352.4 "
       class="st4"
       style="opacity:0.8;fill:#f2f2f2;stroke-width:0.28703123;enable-background:new" />
    <polyline
       id="polyline1653"
       points="499,161.4 503.9,158.6 508.8,161.4 508.8,167 503.9,169.8 499,167 499,161.4 "
       class="st4"
       style="opacity:0.8;fill:#f2f2f2;stroke-width:0.28703123;enable-background:new" />
    <polyline
       id="polyline1655"
       points="448.3,223.9 454.7,220.3 461,223.9 461,231.2 454.7,234.8 448.3,231.2 448.3,223.9 "
       class="st7"
       style="fill:#7fb036;stroke-width:0.28703123" />
    <polyline
       id="polyline1657"
       points="567.7,167.6 574.1,164 580.4,167.6 580.4,174.9 574.1,178.5 567.7,174.9 567.7,167.6 "
       class="st4"
       style="opacity:0.8;fill:#f2f2f2;stroke-width:0.28703123;enable-background:new" />
    <polyline
       id="polyline1659"
       points="520,220.1 524.3,217.7 528.7,220.1 528.7,225.1 524.3,227.6 520,225.1 520,220.1 "
       class="st4"
       style="opacity:0.8;fill:#f2f2f2;stroke-width:0.28703123;enable-background:new" />
    <polyline
       id="polyline1661"
       points="505.4,528.6 511.8,525.1 518.1,528.7 518.1,536 511.8,539.5 505.4,535.9 505.4,528.6 "
       class="st4"
       style="opacity:0.8;fill:#f2f2f2;stroke-width:0.28703123;enable-background:new" />
    <polyline
       id="polyline1663"
       points="475.6,563.4 483.4,559 491.1,563.4 491.1,572.3 483.4,576.6 475.6,572.3 475.6,563.4 "
       class="st4"
       style="opacity:0.8;fill:#f2f2f2;stroke-width:0.28703123;enable-background:new" />
    <polyline
       id="polyline1665"
       points="638,527 644.4,523.4 650.7,527 650.7,534.3 644.4,537.9 638,534.3 638,527 "
       class="st9"
       style="fill:#fff34d;stroke-width:0.28703123" />
    <polyline
       id="polyline1667"
       points="261.9,665 268.2,661.4 274.6,665 274.6,672.3 268.2,675.9 261.9,672.3 261.9,665 "
       class="st4"
       style="opacity:0.8;fill:#f2f2f2;stroke-width:0.28703123;enable-background:new" />
    <polyline
       id="polyline1669"
       points="375.5,701.6 379.5,699.3 383.5,701.6 383.5,706.2 379.5,708.4 375.5,706.1 375.5,701.6 "
       class="st9"
       style="fill:#fff34d;stroke-width:0.28703123" />
    <polyline
       id="polyline1671"
       points="189.2,663.9 195.5,660.3 201.9,663.9 201.9,671.2 195.5,674.8 189.2,671.2 189.2,663.9 "
       class="st11"
       style="fill:#db1f26;stroke-width:0.28703123" />
    <polyline
       id="polyline1673"
       points="243.2,719.1 253.5,713.3 263.8,719.2 263.8,731 253.5,736.8 243.2,730.9 243.2,719.1 "
       class="st8"
       style="fill:#f9ecc6;stroke-width:0.28703123" />
    <polyline
       id="polyline1675"
       points="309.7,736.8 320,731 330.3,736.9 330.3,748.7 320,754.5 309.7,748.6 309.7,736.8 "
       class="st11"
       style="fill:#db1f26;stroke-width:0.28703123" />
    <polyline
       id="polyline1677"
       points="513.8,593.8 520.1,590.2 526.5,593.8 526.5,601.1 520.1,604.7 513.8,601.1 513.8,593.8 "
       class="st4"
       style="opacity:0.8;fill:#f2f2f2;stroke-width:0.28703123;enable-background:new" />
    <polyline
       id="polyline1679"
       points="466.4,658.8 470.4,656.6 474.3,658.8 474.3,663.3 470.4,665.6 466.4,663.3 466.4,658.8 "
       class="st4"
       style="opacity:0.8;fill:#f2f2f2;stroke-width:0.28703123;enable-background:new" />
    <polyline
       id="polyline1681"
       points="638.4,628 642.8,625.5 647.2,628 647.2,633.1 642.8,635.6 638.4,633.1 638.4,628 "
       class="st4"
       style="opacity:0.8;fill:#f2f2f2;stroke-width:0.28703123;enable-background:new" />
    <polyline
       id="polyline1683"
       points="511.8,187 518.1,183.4 524.5,187 524.5,194.3 518.1,197.9 511.8,194.3 511.8,187 "
       class="st5"
       style="fill:#f7a238;stroke-width:0.28703123" />
    <polyline
       id="polyline1685"
       points="495.4,325.4 501.8,321.8 508.1,325.4 508.1,332.7 501.8,336.3 495.4,332.7 495.4,325.4 "
       class="st4"
       style="opacity:0.8;fill:#f2f2f2;stroke-width:0.28703123;enable-background:new" />
    <polyline
       id="polyline1687"
       points="388.4,299.9 391.5,298.1 394.7,299.9 394.7,303.5 391.5,305.3 388.4,303.5 388.4,299.9 "
       class="st4"
       style="opacity:0.8;fill:#f2f2f2;stroke-width:0.28703123;enable-background:new" />
    <polyline
       id="polyline1689"
       points="626.1,561.2 632.5,557.7 638.8,561.3 638.8,568.6 632.5,572.1 626.1,568.5 626.1,561.2 "
       class="st4"
       style="opacity:0.8;fill:#f2f2f2;stroke-width:0.28703123;enable-background:new" />
    <polyline
       id="polyline1691"
       points="473.8,608.8 485.1,602.4 496.5,608.9 496.5,622 485.1,628.3 473.8,621.9 473.8,608.8 "
       class="st8"
       style="fill:#f9ecc6;stroke-width:0.28703123" />
    <polyline
       id="polyline1693"
       points="666.6,243.3 672.9,239.7 679.3,243.3 679.3,250.6 672.9,254.2 666.6,250.6 666.6,243.3 "
       class="st4"
       style="opacity:0.8;fill:#f2f2f2;stroke-width:0.28703123;enable-background:new" />
    <polyline
       id="polyline1695"
       points="676.7,283.1 687.5,277 698.3,283.2 698.3,295.6 687.5,301.7 676.7,295.6 676.7,283.1 "
       class="st4"
       style="opacity:0.8;fill:#f2f2f2;stroke-width:0.28703123;enable-background:new" />
    <polygon
       id="polygon1697"
       points="289.5,140.1 279.1,145.9 279.1,158 289.5,163.9 299.8,158 299.8,145.9 "
       class="st5"
       style="fill:#f7a238;stroke-width:0.28703123" />
    <polygon
       id="polygon1699"
       points="359.2,166.3 362.3,164.5 362.3,160.9 359.2,159.1 356.1,160.9 356.1,164.5 "
       class="st5"
       style="fill:#f7a238;stroke-width:0.28703123" />
    <polygon
       id="polygon1701"
       points="435.1,192.3 431.9,194.2 431.9,197.9 435.1,199.8 438.3,197.9 438.3,194.2 "
       class="st12"
       style="fill:#f26524;stroke-width:0.28703123" />
    <polygon
       id="polygon1703"
       points="422.6,102.7 428.8,99.1 428.8,91.8 422.6,88.2 416.3,91.8 416.3,99.1 "
       class="st5"
       style="fill:#f7a238;stroke-width:0.28703123" />
    <polygon
       id="polygon1705"
       points="348.5,84.2 342.1,87.8 342.1,95.1 348.5,98.7 354.7,95.1 354.7,87.8 "
       class="st13"
       style="fill:#00a5dc;stroke-width:0.28703123" />
    <polygon
       id="polygon1707"
       points="372.7,126.6 372.7,114.1 362,108 351.1,114.1 351.1,126.6 362,132.8 "
       class="st14"
       style="fill:#164f86;stroke-width:0.28703123" />
    <polygon
       id="polygon1709"
       points="236.1,210.1 229.8,213.6 229.8,220.9 236.1,224.5 242.3,220.9 242.3,213.6 "
       class="st14"
       style="fill:#164f86;stroke-width:0.28703123" />
    <polygon
       id="polygon1711"
       points="395.8,164.5 391.5,166.9 391.5,171.7 395.8,174.1 399.9,171.7 399.9,166.9 "
       class="st14"
       style="fill:#164f86;stroke-width:0.28703123" />
    <polygon
       id="polygon1713"
       points="313.1,151.8 308.4,154.5 308.4,159.9 313.1,162.6 317.7,159.9 317.7,154.5 "
       class="st14"
       style="fill:#164f86;stroke-width:0.28703123" />
    <polygon
       id="polygon1715"
       points="344.9,146.8 344.9,139.5 338.7,135.9 332.4,139.5 332.4,146.8 338.7,150.4 "
       class="st13"
       style="fill:#00a5dc;stroke-width:0.28703123" />
    <polygon
       id="polygon1717"
       points="370.1,194.1 366,196.5 366,201.2 370.1,203.6 374.2,201.2 374.2,196.5 "
       class="st13"
       style="fill:#00a5dc;stroke-width:0.28703123" />
    <polygon
       id="polygon1719"
       points="374.9,53.2 368.5,56.8 368.5,64.1 374.9,67.7 381,64.1 381,56.8 "
       class="st9"
       style="fill:#fff34d;stroke-width:0.28703123" />
    <polygon
       id="polygon1721"
       points="419,73.7 412.7,77.3 412.7,84.6 419,88.2 425.2,84.6 425.2,77.3 "
       class="st15"
       style="fill:#36a85d;stroke-width:0.28703123" />
    <polygon
       id="polygon1723"
       points="308.4,197.8 308.4,190.5 302.2,186.9 295.9,190.5 295.9,197.8 302.2,201.4 "
       class="st11"
       style="fill:#db1f26;stroke-width:0.28703123" />
    <polygon
       id="polygon1725"
       points="425.7,326.5 419.4,330.1 419.4,337.4 425.7,341 431.9,337.4 431.9,330.1 "
       class="st15"
       style="fill:#36a85d;stroke-width:0.28703123" />
    <polygon
       id="polygon1727"
       points="323.5,128.7 317.2,132.3 317.2,139.6 323.5,143.2 329.7,139.6 329.7,132.3 "
       class="st9"
       style="fill:#fff34d;stroke-width:0.28703123" />
    <polygon
       id="polygon1729"
       points="85.3,294.4 94.9,289 94.9,278 85.3,272.6 75.8,278 75.8,289 "
       class="st11"
       style="fill:#db1f26;stroke-width:0.28703123" />
    <polygon
       id="polygon1731"
       points="111.5,313.9 105.1,317.4 105.1,324.7 111.5,328.4 117.8,324.8 117.8,317.5 "
       class="st13"
       style="fill:#00a5dc;stroke-width:0.28703123" />
    <polygon
       id="polygon1733"
       points="169.8,262.6 161.6,267.2 161.6,276.7 169.8,281.4 178.1,276.8 178.1,267.3 "
       class="st9"
       style="fill:#fff34d;stroke-width:0.28703123" />
    <polygon
       id="polygon1735"
       points="174.1,185.1 163.8,190.9 163.8,202.8 174.1,208.6 184.2,202.8 184.2,190.9 "
       class="st9"
       style="fill:#fff34d;stroke-width:0.28703123" />
    <polygon
       id="polygon1737"
       points="86.5,308.8 89.8,306.9 89.8,303 86.5,301.1 83.1,303 83.1,306.9 "
       class="st9"
       style="fill:#fff34d;stroke-width:0.28703123" />
    <polygon
       id="polygon1739"
       points="155.3,317.9 159.1,315.6 159.1,311.1 155.3,308.9 151.4,311.1 151.4,315.6 "
       class="st12"
       style="fill:#f26524;stroke-width:0.28703123" />
    <polygon
       id="polygon1741"
       points="215.6,242.5 209.2,246.1 209.2,253.4 215.6,257 221.8,253.4 221.8,246.1 "
       class="st5"
       style="fill:#f7a238;stroke-width:0.28703123" />
    <polygon
       id="polygon1743"
       points="138.3,245.8 135.1,247.5 135.1,251.2 138.3,253 141.4,251.2 141.4,247.5 "
       class="st14"
       style="fill:#164f86;stroke-width:0.28703123" />
    <polygon
       id="polygon1745"
       points="252.8,272.6 246.4,276.2 246.4,283.5 252.8,287.1 259,283.5 259,276.2 "
       class="st6"
       style="fill:#0088c5;stroke-width:0.28703123" />
    <polygon
       id="polygon1747"
       points="52.8,277.7 56.8,275.4 56.8,270.7 52.8,268.4 48.7,270.7 48.7,275.4 "
       class="st9"
       style="fill:#fff34d;stroke-width:0.28703123" />
    <polygon
       id="polygon1749"
       points="197,282.4 197,296.7 209.4,303.7 221.5,296.7 221.5,282.4 209.4,275.4 "
       class="st16"
       style="fill:#fffef9;stroke-width:0.28703123" />
    <polygon
       id="polygon1751"
       points="133.4,288.2 125.3,292.8 125.3,302.1 133.4,306.8 141.4,302.1 141.4,292.8 "
       class="st14"
       style="fill:#164f86;stroke-width:0.28703123" />
    <polygon
       id="polygon1753"
       points="188.4,324 182.1,327.5 182.1,334.8 188.4,338.4 194.6,334.8 194.6,327.5 "
       class="st14"
       style="fill:#164f86;stroke-width:0.28703123" />
    <polygon
       id="polygon1755"
       points="171.3,215.6 168.5,217.2 168.5,220.4 171.3,222 174,220.4 174,217.2 "
       class="st11"
       style="fill:#db1f26;stroke-width:0.28703123" />
    <polygon
       id="polygon1757"
       points="186.9,242.5 191,240.1 191,235.2 186.9,232.8 182.6,235.2 182.6,240.1 "
       class="st15"
       style="fill:#36a85d;stroke-width:0.28703123" />
    <polygon
       id="polygon1759"
       points="88.6,255.8 97.4,250.7 97.4,240.3 88.6,235.2 79.6,240.3 79.6,250.7 "
       class="st15"
       style="fill:#36a85d;stroke-width:0.28703123" />
    <polygon
       id="polygon1761"
       points="113.4,266.6 110.1,268.4 110.1,272.1 113.4,274 116.5,272.1 116.5,268.4 "
       class="st11"
       style="fill:#db1f26;stroke-width:0.28703123" />
    <polygon
       id="polygon1763"
       points="79.7,563.4 76.1,565.5 76.1,569.7 79.7,571.7 83.2,569.7 83.2,565.5 "
       class="st5"
       style="fill:#f7a238;stroke-width:0.28703123" />
    <polygon
       id="polygon1765"
       points="50,451.6 55.2,448.5 55.2,442.4 50,439.4 44.7,442.4 44.7,448.5 "
       class="st5"
       style="fill:#f7a238;stroke-width:0.28703123" />
    <polygon
       id="polygon1767"
       points="168.3,649 171.6,647.1 171.6,643.2 168.3,641.3 164.9,643.2 164.9,647.1 "
       class="st5"
       style="fill:#f7a238;stroke-width:0.28703123" />
    <polygon
       id="polygon1769"
       points="224.3,686.2 227.4,684.3 227.4,680.7 224.3,678.9 221.1,680.7 221.1,684.3 "
       class="st14"
       style="fill:#164f86;stroke-width:0.28703123" />
    <polygon
       id="polygon1771"
       points="46.1,552.6 54.4,547.8 54.4,538 46.1,533.1 37.5,538 37.5,547.8 "
       class="st9"
       style="fill:#fff34d;stroke-width:0.28703123" />
    <polygon
       id="polygon1773"
       points="76.1,610.8 85.9,605.1 85.9,593.7 76.1,588 66.2,593.7 66.2,605.1 "
       class="st11"
       style="fill:#db1f26;stroke-width:0.28703123" />
    <polygon
       id="polygon1775"
       points="45.5,374.5 40.8,377.2 40.8,382.5 45.5,385.2 50,382.5 50,377.2 "
       class="st14"
       style="fill:#164f86;stroke-width:0.28703123" />
    <polygon
       id="polygon1777"
       points="41.4,481.1 38.1,482.9 38.1,486.6 41.4,488.5 44.5,486.6 44.5,482.9 "
       class="st5"
       style="fill:#f7a238;stroke-width:0.28703123" />
    <polygon
       id="polygon1779"
       points="226.6,151.8 221.8,154.5 221.8,160 226.6,162.7 231.2,160 231.2,154.5 "
       class="st5"
       style="fill:#f7a238;stroke-width:0.28703123" />
    <polygon
       id="polygon1781"
       points="75.9,504.2 66,509.8 66,521.2 75.9,526.9 85.6,521.2 85.6,509.8 "
       class="st8"
       style="fill:#f9ecc6;stroke-width:0.28703123" />
    <polygon
       id="polygon1783"
       points="183.3,541.2 187.4,538.8 187.4,534 183.3,531.7 179.1,534 179.1,538.8 "
       class="st5"
       style="fill:#f7a238;stroke-width:0.28703123" />
    <polygon
       id="polygon1785"
       points="245.9,584.1 252.2,580.5 252.2,573.2 245.9,569.7 239.6,573.2 239.6,580.5 "
       class="st5"
       style="fill:#f7a238;stroke-width:0.28703123" />
    <polygon
       id="polygon1787"
       points="114.9,609.6 119.1,607.1 119.1,602.2 114.9,599.7 110.5,602.2 110.5,607.1 "
       class="st9"
       style="fill:#fff34d;stroke-width:0.28703123" />
    <polygon
       id="polygon1789"
       points="205.6,562.3 215.2,556.7 215.2,545.4 205.6,539.9 195.8,545.4 195.8,556.7 "
       class="st14"
       style="fill:#164f86;stroke-width:0.28703123" />
    <polygon
       id="polygon1791"
       points="146.1,583.9 152.3,580.3 152.3,573 146.1,569.4 139.8,573 139.8,580.3 "
       class="st14"
       style="fill:#164f86;stroke-width:0.28703123" />
    <polygon
       id="polygon1793"
       points="179.4,515.5 175.3,517.8 175.3,522.6 179.4,524.9 183.4,522.6 183.4,517.8 "
       class="st14"
       style="fill:#164f86;stroke-width:0.28703123" />
    <polygon
       id="polygon1795"
       points="300.9,577.6 294.6,581.2 294.6,588.4 300.9,592 307.1,588.4 307.1,581.2 "
       class="st14"
       style="fill:#164f86;stroke-width:0.28703123" />
    <polygon
       id="polygon1797"
       points="137.9,515.5 134.2,517.6 134.2,521.8 137.9,523.8 141.4,521.8 141.4,517.6 "
       class="st9"
       style="fill:#fff34d;stroke-width:0.28703123" />
    <polygon
       id="polygon1799"
       points="204.3,641.4 208.9,638.7 208.9,633.4 204.3,630.7 199.7,633.4 199.7,638.7 "
       class="st9"
       style="fill:#fff34d;stroke-width:0.28703123" />
    <polygon
       id="polygon1801"
       points="375.9,233.1 375.9,245.9 387,252.2 397.8,245.9 397.8,233.1 387,226.9 "
       class="st5"
       style="fill:#f7a238;stroke-width:0.28703123" />
    <polygon
       id="polygon1803"
       points="412.7,271.8 412.7,264.5 406.5,260.9 400.1,264.5 400.1,271.8 406.5,275.4 "
       class="st5"
       style="fill:#f7a238;stroke-width:0.28703123" />
    <polygon
       id="polygon1805"
       points="301,273.6 301,270 297.9,268.2 294.7,270 294.7,273.6 297.9,275.4 "
       class="st12"
       style="fill:#f26524;stroke-width:0.28703123" />
    <polygon
       id="polygon1807"
       points="370.3,329.2 370.3,343.4 382.6,350.3 394.6,343.4 394.6,329.2 382.6,322.3 "
       class="st14"
       style="fill:#164f86;stroke-width:0.28703123" />
    <polygon
       id="polygon1809"
       points="339.3,336 333,339.6 333,346.9 339.3,350.5 345.5,346.9 345.5,339.6 "
       class="st5"
       style="fill:#f7a238;stroke-width:0.28703123" />
    <polygon
       id="polygon1811"
       points="349.8,283.5 349.8,290.8 356.1,294.4 362.3,290.8 362.3,283.5 356.1,279.9 "
       class="st13"
       style="fill:#00a5dc;stroke-width:0.28703123" />
    <polygon
       id="polygon1813"
       points="440.5,291.1 440.5,298.5 446.9,302.1 453.1,298.5 453.1,291.1 446.9,287.6 "
       class="st15"
       style="fill:#36a85d;stroke-width:0.28703123" />
    <polygon
       id="polygon1815"
       points="286.9,331 289.3,329.6 289.3,326.7 286.9,325.3 284.4,326.7 284.4,329.6 "
       class="st11"
       style="fill:#db1f26;stroke-width:0.28703123" />
    <polygon
       id="polygon1817"
       points="240.1,301.4 231.5,306.3 231.5,316.2 240.1,321.1 248.6,316.2 248.6,306.3 "
       class="st8"
       style="fill:#f9ecc6;stroke-width:0.28703123" />
    <polygon
       id="polygon1819"
       points="274.6,571.5 277.7,569.7 277.7,566 274.6,564.2 271.5,566 271.5,569.7 "
       class="st11"
       style="fill:#db1f26;stroke-width:0.28703123" />
    <polygon
       id="polygon1821"
       points="369.5,568.9 373.2,566.7 373.2,562.3 369.5,560.1 365.6,562.3 365.6,566.7 "
       class="st5"
       style="fill:#f7a238;stroke-width:0.28703123" />
    <polygon
       id="polygon1823"
       points="440.3,598.2 432.1,602.8 432.1,612.2 440.3,616.8 448.2,612.2 448.2,602.8 "
       class="st5"
       style="fill:#f7a238;stroke-width:0.28703123" />
    <polygon
       id="polygon1825"
       points="371.9,507.6 367.8,509.9 367.8,514.7 371.9,517 375.9,514.7 375.9,509.9 "
       class="st14"
       style="fill:#164f86;stroke-width:0.28703123" />
    <polygon
       id="polygon1827"
       points="246,648.5 258.8,641 258.8,626 246,618.7 233,626 233,641 "
       class="st17"
       style="fill:#ef4782;stroke-width:0.28703123" />
    <polygon
       id="polygon1829"
       points="407.5,549.4 396.6,555.6 396.6,568.1 407.5,574.3 418.2,568.1 418.2,555.6 "
       class="st11"
       style="fill:#db1f26;stroke-width:0.28703123" />
    <polygon
       id="polygon1831"
       points="316.8,544.3 310.4,547.9 310.4,555.2 316.8,558.8 323,555.2 323,547.9 "
       class="st9"
       style="fill:#fff34d;stroke-width:0.28703123" />
    <polygon
       id="polygon1833"
       points="348.3,531.3 342,534.9 342,542.2 348.3,545.8 354.5,542.2 354.5,534.9 "
       class="st6"
       style="fill:#0088c5;stroke-width:0.28703123" />
    <polygon
       id="polygon1835"
       points="381.9,604 388.1,600.4 388.1,593.1 381.9,589.5 375.6,593.1 375.6,600.4 "
       class="st14"
       style="fill:#164f86;stroke-width:0.28703123" />
    <polygon
       id="polygon1837"
       points="631.9,357.7 638.1,354.1 638.1,346.8 631.9,343.3 625.6,346.8 625.6,354.1 "
       class="st5"
       style="fill:#f7a238;stroke-width:0.28703123" />
    <polygon
       id="polygon1839"
       points="461.1,335.1 467.3,331.5 467.3,324.2 461.1,320.6 454.8,324.2 454.8,331.5 "
       class="st5"
       style="fill:#f7a238;stroke-width:0.28703123" />
    <polygon
       id="polygon1841"
       points="557.8,353.8 564,350.2 564,342.9 557.8,339.3 551.4,342.9 551.4,350.2 "
       class="st14"
       style="fill:#164f86;stroke-width:0.28703123" />
    <polygon
       id="polygon1843"
       points="596.3,330.6 608.2,323.6 608.2,309.6 596.3,302.6 584.1,309.6 584.1,323.6 "
       class="st9"
       style="fill:#fff34d;stroke-width:0.28703123" />
    <polygon
       id="polygon1845"
       points="638.3,333.3 641.3,331.5 641.3,328 638.3,326.2 635.2,328 635.2,331.5 "
       class="st15"
       style="fill:#36a85d;stroke-width:0.28703123" />
    <polygon
       id="polygon1847"
       points="473.1,156.7 466.8,160.3 466.8,167.6 473.1,171.2 479.4,167.6 479.4,160.3 "
       class="st5"
       style="fill:#f7a238;stroke-width:0.28703123" />
    <polygon
       id="polygon1849"
       points="447.4,259 447.4,248.5 438.4,243.3 429.3,248.5 429.3,259 438.4,264.2 "
       class="st14"
       style="fill:#164f86;stroke-width:0.28703123" />
    <polygon
       id="polygon1851"
       points="450.3,109.9 437.1,117.3 437.1,132.5 450.3,140.1 463.2,132.5 463.2,117.3 "
       class="st7"
       style="fill:#7fb036;stroke-width:0.28703123" />
    <polygon
       id="polygon1853"
       points="525.6,257.4 512.5,264.7 512.5,279.7 525.6,287.1 538.3,279.7 538.3,264.7 "
       class="st11"
       style="fill:#db1f26;stroke-width:0.28703123" />
    <polygon
       id="polygon1855"
       points="654.1,232.1 657.2,230.4 657.2,226.8 654.1,225.1 651,226.8 651,230.4 "
       class="st5"
       style="fill:#f7a238;stroke-width:0.28703123" />
    <polygon
       id="polygon1857"
       points="557.9,178.5 545.5,185.5 545.5,199.8 557.9,206.8 570,199.8 570,185.5 "
       class="st14"
       style="fill:#164f86;stroke-width:0.28703123" />
    <polygon
       id="polygon1859"
       points="589.4,217.7 583.1,221.2 583.1,228.5 589.4,232.1 595.6,228.5 595.6,221.2 "
       class="st5"
       style="fill:#f7a238;stroke-width:0.28703123" />
    <polygon
       id="polygon1861"
       points="580.2,253.8 575.7,256.4 575.7,261.6 580.2,264.2 584.7,261.6 584.7,256.4 "
       class="st14"
       style="fill:#164f86;stroke-width:0.28703123" />
    <polygon
       id="polygon1863"
       points="609.3,192.5 606.2,194.3 606.2,197.8 609.3,199.6 612.3,197.8 612.3,194.3 "
       class="st14"
       style="fill:#164f86;stroke-width:0.28703123" />
    <polygon
       id="polygon1865"
       points="491,212.4 484.6,215.9 484.6,223.2 491,226.9 497.2,223.2 497.2,215.9 "
       class="st13"
       style="fill:#00a5dc;stroke-width:0.28703123" />
    <polygon
       id="polygon1867"
       points="555.5,252.9 561.7,249.3 561.7,242 555.5,238.4 549.1,242 549.1,249.3 "
       class="st15"
       style="fill:#36a85d;stroke-width:0.28703123" />
    <polygon
       id="polygon1869"
       points="497.2,305.3 499.4,304.1 499.4,301.5 497.2,300.2 495,301.5 495,304.1 "
       class="st15"
       style="fill:#36a85d;stroke-width:0.28703123" />
    <polygon
       id="polygon1871"
       points="605.8,536.6 612,533 612,525.7 605.8,522.1 599.5,525.7 599.5,533 "
       class="st5"
       style="fill:#f7a238;stroke-width:0.28703123" />
    <polygon
       id="polygon1873"
       points="539.5,520.8 533.1,524.4 533.1,531.7 539.5,535.3 545.7,531.7 545.7,524.4 "
       class="st9"
       style="fill:#fff34d;stroke-width:0.28703123" />
    <polygon
       id="polygon1875"
       points="548.5,567.8 558.5,562 558.5,550.3 548.5,544.5 538.3,550.3 538.3,562 "
       class="st14"
       style="fill:#164f86;stroke-width:0.28703123" />
    <polygon
       id="polygon1877"
       points="575.8,519.8 569.5,523.4 569.5,530.7 575.8,534.3 582,530.7 582,523.4 "
       class="st14"
       style="fill:#164f86;stroke-width:0.28703123" />
    <polygon
       id="polygon1879"
       points="450,563.2 445.4,565.8 445.4,571.1 450,573.7 454.5,571.1 454.5,565.8 "
       class="st15"
       style="fill:#36a85d;stroke-width:0.28703123" />
    <polygon
       id="polygon1881"
       points="336.1,522 336.1,518.5 333,516.8 330,518.5 330,522 333,523.8 "
       class="st15"
       style="fill:#36a85d;stroke-width:0.28703123" />
    <polygon
       id="polygon1883"
       points="342.1,603.4 328,611.3 328,627.6 342.1,635.6 355.9,627.6 355.9,611.3 "
       class="st15"
       style="fill:#36a85d;stroke-width:0.28703123" />
    <polygon
       id="polygon1885"
       points="307.2,661.4 313.4,657.8 313.4,650.5 307.2,646.9 300.9,650.5 300.9,657.8 "
       class="st5"
       style="fill:#f7a238;stroke-width:0.28703123" />
    <polygon
       id="polygon1887"
       points="168.3,585.9 172.4,583.5 172.4,578.7 168.3,576.3 164.1,578.7 164.1,583.5 "
       class="st5"
       style="fill:#f7a238;stroke-width:0.28703123" />
    <polygon
       id="polygon1889"
       points="351.4,736.8 357.6,733.2 357.6,725.9 351.4,722.3 345.1,725.9 345.1,733.2 "
       class="st5"
       style="fill:#f7a238;stroke-width:0.28703123" />
    <polygon
       id="polygon1891"
       points="413.7,684.8 419.9,681.2 419.9,673.9 413.7,670.4 407.4,673.9 407.4,681.2 "
       class="st14"
       style="fill:#164f86;stroke-width:0.28703123" />
    <polygon
       id="polygon1893"
       points="298.7,727.8 302.8,725.4 302.8,720.7 298.7,718.3 294.6,720.7 294.6,725.4 "
       class="st14"
       style="fill:#164f86;stroke-width:0.28703123" />
    <polygon
       id="polygon1895"
       points="324,786 329,783.1 329,777.1 324,774.2 318.8,777.1 318.8,783.1 "
       class="st14"
       style="fill:#164f86;stroke-width:0.28703123" />
    <polygon
       id="polygon1897"
       points="296.8,673.5 293.6,675.3 293.6,679.1 296.8,680.9 300,679.1 300,675.3 "
       class="st9"
       style="fill:#fff34d;stroke-width:0.28703123" />
    <polygon
       id="polygon1899"
       points="208.2,609.5 214.4,605.8 214.4,598.5 208.2,595 201.9,598.5 201.9,605.8 "
       class="st14"
       style="fill:#164f86;stroke-width:0.28703123" />
    <polygon
       id="polygon1901"
       points="357.7,679.1 363.9,675.5 363.9,668.2 357.7,664.6 351.4,668.2 351.4,675.5 "
       class="st5"
       style="fill:#f7a238;stroke-width:0.28703123" />
    <polygon
       id="polygon1903"
       points="584.1,564.7 580.3,566.9 580.3,571.2 584.1,573.4 587.8,571.2 587.8,566.9 "
       class="st5"
       style="fill:#f7a238;stroke-width:0.28703123" />
    <polygon
       id="polygon1905"
       points="442.1,722.1 453.9,715.3 453.9,701.5 442.1,694.7 430.1,701.5 430.1,715.3 "
       class="st5"
       style="fill:#f7a238;stroke-width:0.28703123" />
    <polygon
       id="polygon1907"
       points="597.1,653 607.6,646.9 607.6,634.5 597.1,628.3 586.3,634.5 586.3,646.9 "
       class="st5"
       style="fill:#f7a238;stroke-width:0.28703123" />
    <polygon
       id="polygon1909"
       points="632.5,605.5 636.4,603.2 636.4,598.6 632.5,596.3 628.5,598.6 628.5,603.2 "
       class="st14"
       style="fill:#164f86;stroke-width:0.28703123" />
    <polygon
       id="polygon1911"
       points="548.4,651.1 552.2,648.9 552.2,644.4 548.4,642.2 544.5,644.4 544.5,648.9 "
       class="st11"
       style="fill:#db1f26;stroke-width:0.28703123" />
    <polygon
       id="polygon1913"
       points="485.2,699.3 490.2,696.4 490.2,690.5 485.2,687.6 480.1,690.5 480.1,696.4 "
       class="st11"
       style="fill:#db1f26;stroke-width:0.28703123" />
    <polygon
       id="polygon1915"
       points="526.4,686.3 530.1,684.2 530.1,679.9 526.4,677.8 522.7,679.9 522.7,684.2 "
       class="st14"
       style="fill:#164f86;stroke-width:0.28703123" />
    <polygon
       id="polygon1917"
       points="552.8,603.6 559,600 559,592.7 552.8,589.1 546.5,592.7 546.5,600 "
       class="st14"
       style="fill:#164f86;stroke-width:0.28703123" />
    <polygon
       id="polygon1919"
       points="590.8,587.9 584.4,591.5 584.4,598.8 590.8,602.4 597,598.8 597,591.5 "
       class="st15"
       style="fill:#36a85d;stroke-width:0.28703123" />
    <polygon
       id="polygon1921"
       points="437,645.8 433.8,647.6 433.8,651.2 437,653 440.1,651.2 440.1,647.6 "
       class="st9"
       style="fill:#fff34d;stroke-width:0.28703123" />
    <polygon
       id="polygon1923"
       points="501.1,663.8 508.8,659.3 508.8,650.2 501.1,645.8 493.2,650.2 493.2,659.3 "
       class="st15"
       style="fill:#36a85d;stroke-width:0.28703123" />
    <polygon
       id="polygon1925"
       points="675.7,520.8 682.2,517 682.2,509.4 675.7,505.6 669,509.4 669,517 "
       class="st17"
       style="fill:#ef4782;stroke-width:0.28703123" />
    <polygon
       id="polygon1927"
       points="696,461.9 691.4,464.5 691.4,469.7 696,472.3 700.4,469.7 700.4,464.5 "
       class="st15"
       style="fill:#36a85d;stroke-width:0.28703123" />
    <polygon
       id="polygon1929"
       points="636.3,261.4 639.7,259.4 639.7,255.4 636.3,253.5 632.8,255.4 632.8,259.4 "
       class="st5"
       style="fill:#f7a238;stroke-width:0.28703123" />
    <polygon
       id="polygon1931"
       points="625.6,216.2 619.3,219.8 619.3,227.1 625.6,230.7 631.8,227.1 631.8,219.8 "
       class="st15"
       style="fill:#36a85d;stroke-width:0.28703123" />
    <polygon
       id="polygon1933"
       points="688.6,331.2 685.6,332.9 685.6,336.5 688.6,338.2 691.7,336.5 691.7,332.9 "
       class="st5"
       style="fill:#f7a238;stroke-width:0.28703123" />
    <polygon
       id="polygon1935"
       points="654.2,300.8 660.4,297.2 660.4,289.9 654.2,286.4 647.8,289.9 647.8,297.2 "
       class="st15"
       style="fill:#36a85d;stroke-width:0.28703123" />
    <polyline
       id="polyline1937"
       points="691.8,571.6 696.3,569 700.8,571.6 700.8,576.8 696.3,579.4 691.8,576.8 691.8,571.6 "
       class="st4"
       style="opacity:0.8;fill:#f2f2f2;stroke-width:0.28703123;enable-background:new" />
    <polyline
       id="polyline1939"
       points="691.4,395.4 695.9,392.9 700.4,395.5 700.4,400.7 695.9,403.2 691.4,400.6 691.4,395.4 "
       class="st10"
       style="fill:#b57ab4;stroke-width:0.28703123" />
    <path
       id="path1941"
       d="M 365.4,799.2 369.9,803.7 C 370.9,804.7 371.8,805.6 372.6,806.6 H 372.7 C 372.3,805.4 372,804.1 371.7,802.8 L 370.3,796.5 371.9,795.6 376.6,799.9 C 377.7,800.9 378.7,801.9 379.5,802.8 H 379.6 C 379.1,801.5 378.7,800.2 378.4,798.9 L 376.8,792.8 378.7,791.7 381.4,804.1 379.7,805.1 375.2,801 C 374.2,800 373.2,799.2 372.3,798.1 V 798.1 C 372.7,799.4 373.1,800.7 373.4,802.1 L 374.6,808.1 372.9,809.1 363.7,800.5 Z"
       class="st2"
       inkscape:connector-curvature="0"
       style="fill:#ffffff;stroke-width:0.28703123" />
    <path
       id="path1943"
       d="M 381.6,789.8 386.1,794.3 C 387.1,795.3 388,796.2 388.8,797.2 H 388.9 C 388.5,796 388.2,794.7 387.9,793.4 L 386.5,787 388.1,786.1 392.8,790.4 C 393.9,791.4 394.9,792.4 395.7,793.3 H 395.8 C 395.3,792 394.9,790.7 394.6,789.4 L 393.1,783.2 395,782.1 397.7,794.5 396,795.5 391.5,791.4 C 390.5,790.4 389.5,789.6 388.6,788.5 V 788.5 C 389,789.8 389.4,791.1 389.7,792.5 L 390.9,798.5 389.2,799.5 379.9,791 Z"
       class="st2"
       inkscape:connector-curvature="0"
       style="fill:#ffffff;stroke-width:0.28703123" />
    <path
       id="path1945"
       d="M 397.8,780.4 402.3,784.9 C 403.3,785.9 404.2,786.8 405,787.8 H 405.1 C 404.7,786.6 404.4,785.3 404.1,784 L 402.7,777.7 404.3,776.8 409,781.1 C 410.1,782.1 411.1,783.1 411.9,784 H 412 C 411.5,782.7 411.1,781.4 410.8,780.1 L 409.2,774 411.1,772.8 413.8,785.2 412.1,786.2 407.6,782.1 C 406.6,781.1 405.6,780.3 404.7,779.2 V 779.2 C 405.1,780.5 405.5,781.8 405.8,783.2 L 407,789.2 405.3,790.2 396.1,781.6 Z"
       class="st2"
       inkscape:connector-curvature="0"
       style="fill:#ffffff;stroke-width:0.28703123" />
    <path
       id="path1947"
       d="M 417,781.7 C 416.6,781 416.9,780.1 417.6,779.7 418.3,779.3 419.2,779.6 419.6,780.3 420,781 419.7,781.9 419,782.3 418.4,782.7 417.4,782.5 417,781.7 Z"
       class="st2"
       inkscape:connector-curvature="0"
       style="fill:#ffffff;stroke-width:0.28703123" />
    <path
       id="path1949"
       d="M 418.4,772.7 C 417.7,771.5 417,770.4 416.4,769.5 L 418.1,768.5 419.3,770.5 H 419.4 C 419,769 419.6,767.3 421,766.5 421.2,766.4 421.4,766.3 421.6,766.3 L 422.6,768.1 C 422.4,768.2 422.1,768.3 421.9,768.4 420.6,769.2 420.1,770.9 420.8,772.3 420.9,772.6 421.1,772.9 421.2,773.2 L 424.4,778.8 422.5,779.9 Z"
       class="st2"
       inkscape:connector-curvature="0"
       style="fill:#ffffff;stroke-width:0.28703123" />
    <path
       id="path1951"
       d="M 428.3,774 C 429.3,774 430.4,773.8 431.3,773.3 432.7,772.5 432.9,771.4 432.4,770.6 431.9,769.8 431,769.5 429.3,769.8 427,770.2 425.5,769.7 424.8,768.5 423.8,766.8 424.4,764.6 426.6,763.3 427.5,762.8 428.5,762.5 429.6,762.5 L 429.9,764.2 C 429,764.2 428.2,764.4 427.4,764.8 426.5,765.1 426.1,766.2 426.4,767.1 426.4,767.2 426.4,767.2 426.5,767.3 427,768.2 427.9,768.2 429.5,767.9 431.7,767.5 433.2,767.9 434.1,769.4 435.2,771.2 434.5,773.4 432,774.8 431,775.4 429.8,775.8 428.6,775.8 Z"
       class="st2"
       inkscape:connector-curvature="0"
       style="fill:#ffffff;stroke-width:0.28703123" />
    <path
       id="path1953"
       d="M 432.7,756 434.5,759 437.2,757.4 438,758.8 435.3,760.4 438.6,766 C 439.4,767.3 440.1,767.8 441.2,767.2 441.6,767 441.9,766.7 442.2,766.4 L 443.1,767.8 C 442.7,768.3 442.2,768.7 441.6,769 440.9,769.5 439.9,769.6 439.1,769.4 438.1,768.9 437.2,768.1 436.8,767.1 L 433.5,761.4 431.9,762.3 431.1,760.9 432.7,759.9 431.2,757.4 Z"
       class="st2"
       inkscape:connector-curvature="0"
       style="fill:#ffffff;stroke-width:0.28703123" />
    <path
       id="path1955"
       d="M 452.5,758.7 C 453.1,759.8 453.7,760.7 454.3,761.5 L 452.6,762.5 451.5,760.9 V 760.9 C 451.5,762.6 450.6,764.1 449.2,764.9 447.6,765.9 445.1,766.1 442.9,762.4 L 439.4,756.3 441.3,755.2 444.7,761 C 445.8,763 447.2,764 449,763 450.1,762.3 450.7,761.1 450.5,759.8 450.4,759.4 450.3,759.1 450.1,758.7 L 446.4,752.3 448.3,751.2 Z"
       class="st2"
       inkscape:connector-curvature="0"
       style="fill:#ffffff;stroke-width:0.28703123" />
    <path
       id="path1957"
       d="M 457.4,739.2 464.8,751.8 C 465.3,752.7 466,753.8 466.5,754.5 L 464.8,755.5 463.7,753.7 V 753.7 C 463.8,755.4 462.9,757 461.3,757.8 458.8,759.3 455.6,758.3 453.7,755.1 451.7,751.6 452.6,748.2 455.1,746.8 456.3,746 457.9,745.9 459.2,746.6 V 746.6 L 455.6,740.4 Z M 460.8,749.4 C 460.6,749.1 460.5,748.9 460.3,748.6 459.3,747.5 457.6,747.2 456.3,748 454.3,749.1 454.2,751.5 455.5,753.9 456.7,756 458.8,757.2 460.8,756 462.1,755.2 462.8,753.6 462.3,752.1 462.2,751.8 462.1,751.5 461.9,751.2 Z"
       class="st2"
       inkscape:connector-curvature="0"
       style="fill:#ffffff;stroke-width:0.28703123" />
    <path
       id="path1959"
       d="M 463.8,738 C 464.2,738.6 464,739.5 463.3,739.9 462.7,740.3 461.8,740.1 461.4,739.4 V 739.4 C 461,738.8 461.2,738 461.8,737.6 H 461.9 C 462.5,737.2 463.3,737.4 463.7,738 463.7,737.9 463.8,738 463.8,738 Z M 469.5,752.6 463.4,742.1 465.3,741 471.4,751.5 Z"
       class="st2"
       inkscape:connector-curvature="0"
       style="fill:#ffffff;stroke-width:0.28703123" />
    <path
       id="path1961"
       d="M 480.9,738.9 C 483.1,742.8 481.4,746 478.9,747.5 476.1,749.1 472.7,748.3 470.8,745 468.8,741.5 469.9,738.1 472.8,736.4 475.7,734.7 479,735.7 480.9,738.9 Z M 472.7,743.8 C 474,746.1 476.4,747 478.2,746 480,745 480.4,742.4 479,740.1 478,738.3 475.8,736.6 473.5,737.9 471.2,739.2 471.5,741.8 472.7,743.8 Z"
       class="st2"
       inkscape:connector-curvature="0"
       style="fill:#ffffff;stroke-width:0.28703123" />
    <path
       id="path1963"
       d="M 484.8,742.2 C 484.4,741.5 484.7,740.6 485.4,740.2 486.1,739.8 487,740.1 487.4,740.8 487.8,741.5 487.5,742.4 486.8,742.8 486.1,743.2 485.2,743 484.8,742.2 484.8,742.3 484.8,742.3 484.8,742.2 Z"
       class="st2"
       inkscape:connector-curvature="0"
       style="fill:#ffffff;stroke-width:0.28703123" />
    <path
       id="path1965"
       d="M 497.6,735.8 C 496.9,736.8 496,737.6 495,738.1 491.9,739.9 488.5,739 486.7,735.8 484.9,733 485.7,729.2 488.5,727.3 488.7,727.2 488.9,727.1 489.1,727 490,726.5 491,726.1 492.1,726 L 492.5,727.7 C 491.6,727.7 490.8,728 490,728.5 487.6,729.9 487.3,732.4 488.6,734.6 490,737 492.4,737.6 494.5,736.4 495.3,735.9 496,735.3 496.5,734.5 Z"
       class="st2"
       inkscape:connector-curvature="0"
       style="fill:#ffffff;stroke-width:0.28703123" />
    <path
       id="path1967"
       d="M 506.2,724.1 C 508.4,728 506.7,731.2 504.2,732.7 501.4,734.4 498,733.5 496.1,730.2 494.1,726.7 495.2,723.3 498.1,721.6 501,719.9 504.4,720.9 506.2,724.1 Z M 498,729 C 499.3,731.3 501.7,732.2 503.5,731.2 505.3,730.2 505.7,727.7 504.3,725.3 503.3,723.5 501.1,721.8 498.8,723.1 496.5,724.4 496.9,727.1 498,729 Z"
       class="st2"
       inkscape:connector-curvature="0"
       style="fill:#ffffff;stroke-width:0.28703123" />
    <path
       id="path1969"
       d="M 507.3,720.4 C 506.7,719.3 506.1,718.4 505.6,717.6 L 507.3,716.6 508.4,718.2 H 508.5 C 508.4,716.6 509.3,715.1 510.7,714.4 512,713.6 513.7,713.8 514.9,714.8 V 714.8 C 514.9,714.1 515,713.4 515.3,712.8 515.7,711.9 516.3,711.2 517.2,710.7 518.6,709.9 521.2,709.6 523.3,713.2 L 526.9,719.4 525,720.5 521.6,714.6 C 520.4,712.6 519,711.8 517.4,712.7 516.4,713.3 515.9,714.5 516.2,715.7 516.3,716.1 516.4,716.4 516.6,716.7 L 520.4,723.2 518.5,724.3 514.9,718.1 C 513.9,716.4 512.5,715.6 511,716.5 509.9,717.2 509.4,718.5 509.8,719.8 509.9,720.2 510,720.5 510.2,720.8 L 513.9,727.1 512,728.1 Z"
       class="st2"
       inkscape:connector-curvature="0"
       style="fill:#ffffff;stroke-width:0.28703123" />
    <path
       id="path1971"
       d="M 736.4,638.4 V 214.1 L 707.1,197.2 429.3,36.8 369,2 308.7,36.8 30.9,197.2 1.6,214.1 V 638.4 L 30.9,655.3 312.2,817.7 369.1,850.5 426,817.7 707.3,655.3 Z M 30.9,622.5 V 232.1 L 369,36.8 V 36.8 L 707.1,232 V 622.4 L 369,817.7 Z"
       class="st18"
       inkscape:connector-curvature="0"
       style="fill:#404040;stroke-width:0.28703123" />
  </g>
  <path
     inkscape:connector-curvature="0"
     style="fill:#cccccc;stroke:none;stroke-width:6.83020306;stroke-linecap:square;stroke-linejoin:miter;stroke-miterlimit:10;stroke-dasharray:none"
     clip-path="url(#cpMC4wMHw0NjguNzV8NjIyLjAxfDgwLjc0)"
     d="M 1517.176,3198.9116 2800.9341,2458.8142"
     id="polygon4315" />
  <style
     id="style4879"
     type="text/css">
	.st0{fill:#ED7D15;}
	.st1{opacity:0.25;fill:url(#SVGID_1_);enable-background:new    ;}
	.st2{fill:#AC5D12;}
	.st3{fill:#E6B35A;}
	.st4{opacity:0.94;}
	.st5{fill:#FFFFFF;}
</style>
  <style
     id="style63776"
     type="text/css">
	.st0{fill:#164F86;}
	.st1{fill:#14275B;}
	.st2{fill:#E6B35A;}
	.st3{fill:#FFFFFF;}
	.st4{fill:#BA3224;}
	.st5{fill:#B13728;}
	.st6{fill:#AA3729;}
	.st7{fill:#221819;}
	.st8{opacity:0.1;fill:#1A171B;enable-background:new    ;}
	.st9{opacity:0.94;}
</style>
  <style
     id="style64347"
     type="text/css">
	.st0{fill:#DB1F26;}
	.st1{opacity:0.25;fill:url(#SVGID_1_);enable-background:new    ;}
	.st2{fill:#A51D21;}
	.st3{fill:#E6B35A;}
	.st4{opacity:0.94;}
	.st5{fill:#FFFFFF;}
</style>
  <style
     id="style66058"
     type="text/css">
	.st0{fill:#36A85D;}
	.st1{fill:#22834A;}
	.st2{fill:#E6B35A;}
	.st3{opacity:0.94;}
	.st4{fill:#FFFFFF;}
	.st5{fill:none;stroke:#000000;stroke-width:0.75;stroke-miterlimit:10;}
</style>
  <style
     id="style1565"
     type="text/css">
	.st0{fill:#141227;}
	.st1{opacity:0.94;}
	.st2{fill:#FFFFFF;}
	.st3{fill:#E6B35A;}
	.st4{opacity:0.8;fill:#F2F2F2;enable-background:new    ;}
	.st5{fill:#F7A238;}
	.st6{fill:#0088C5;}
	.st7{fill:#7FB036;}
	.st8{fill:#F9ECC6;}
	.st9{fill:#FFF34D;}
	.st10{fill:#B57AB4;}
	.st11{fill:#DB1F26;}
	.st12{fill:#F26524;}
	.st13{fill:#00A5DC;}
	.st14{fill:#164F86;}
	.st15{fill:#36A85D;}
	.st16{fill:#FFFEF9;}
	.st17{fill:#EF4782;}
	.st18{fill:#404040;}
</style>
</svg>
