<?xml version="1.0" encoding="UTF-8" standalone="no"?>
<svg
   xmlns:dc="http://purl.org/dc/elements/1.1/"
   xmlns:cc="http://creativecommons.org/ns#"
   xmlns:rdf="http://www.w3.org/1999/02/22-rdf-syntax-ns#"
   xmlns:svg="http://www.w3.org/2000/svg"
   xmlns="http://www.w3.org/2000/svg"
   xmlns:sodipodi="http://sodipodi.sourceforge.net/DTD/sodipodi-0.dtd"
   xmlns:inkscape="http://www.inkscape.org/namespaces/inkscape"
   width="26.639864in"
   height="26.639866in"
   viewBox="0 0 2663.9864 2663.9865"
   id="svg2"
   version="1.1"
   inkscape:version="0.92.4 (f8dce91, 2019-08-02)"
   sodipodi:docname="www.svg">
  <sodipodi:namedview
     pagecolor="#ffffff"
     bordercolor="#666666"
     borderopacity="1"
     objecttolerance="10"
     gridtolerance="10"
     guidetolerance="10"
     inkscape:pageopacity="0"
     inkscape:pageshadow="2"
     inkscape:window-width="1440"
     inkscape:window-height="847"
     id="namedview6"
     showgrid="false"
     fit-margin-top="1"
     fit-margin-left="1"
     fit-margin-right="1"
     fit-margin-bottom="1"
     inkscape:zoom="0.125"
     inkscape:cx="993.03696"
     inkscape:cy="1879.1451"
     inkscape:window-x="0"
     inkscape:window-y="25"
     inkscape:window-maximized="1"
     inkscape:current-layer="svg2" />
  <metadata
     id="metadata9">
    <rdf:RDF>
      <cc:Work
         rdf:about="">
        <dc:format>image/svg+xml</dc:format>
        <dc:type
           rdf:resource="http://purl.org/dc/dcmitype/StillImage" />
        <dc:title />
      </cc:Work>
    </rdf:RDF>
  </metadata>
  <defs
     id="defs7">
    <filter
       inkscape:collect="always"
       style="color-interpolation-filters:sRGB"
       id="filter970"
       x="-0.0528"
       width="1.1056"
       y="-0.0528"
       height="1.1056">
      <feGaussianBlur
         inkscape:collect="always"
         stdDeviation="54.164392"
         id="feGaussianBlur972" />
    </filter>
  </defs>
  <circle
     r="1231.0089"
     cy="1331.9933"
     cx="1331.9932"
     id="circle816"
     style="opacity:1;fill:#000000;fill-opacity:1;stroke:#8e8e10;stroke-width:2.03746724;stroke-linecap:round;stroke-linejoin:round;stroke-miterlimit:4;stroke-dasharray:2.03746719, 2.03746719;stroke-dashoffset:0;stroke-opacity:1;filter:url(#filter970)"
     transform="matrix(0.96615243,0,0,0.96615243,45.084736,45.08474)" />
  <circle
     style="opacity:1;fill:#cccccc;fill-opacity:1;stroke:#8e8e10;stroke-width:1.96850383;stroke-linecap:round;stroke-linejoin:round;stroke-miterlimit:4;stroke-dasharray:1.96850388, 1.96850388;stroke-dashoffset:0;stroke-opacity:1"
     id="path823"
     cx="1331.9932"
     cy="1331.9933"
     r="1189.3423" />
  <path
     style="opacity:1;fill:#000000;fill-opacity:1;stroke:#000000;stroke-width:1.96850407;stroke-linecap:round;stroke-linejoin:round;stroke-miterlimit:4;stroke-dasharray:1.96850395, 1.96850395;stroke-dashoffset:0;stroke-opacity:1"
     d="M 849.26598,495.88271 A 965.45547,965.45547 0 0 0 495.88437,1814.721 965.45547,965.45547 0 0 0 1814.7226,2168.1026 965.45547,965.45547 0 0 0 2168.102,849.26567 965.45547,965.45547 0 0 0 849.26598,495.88271 Z M 895.81906,544.58028 C 967.97368,511.15142 1069.172,530.69132 1179.8507,596.83037 1301.0939,667.81957 1433.8804,799.82385 1550.036,959.60684 1475.0327,1034.1796 1382.8878,1105.996 1282.7277,1167.0483 1275.966,1171.2237 1269.1649,1175.3386 1262.3352,1179.4048 Z M 868.30886,560.50443 1234.8416,1195.3576 C 1125.6583,1257.2644 1009.6307,1305.0736 900.61178,1334.4604 865.91475,1256.999 837.13331,1179.4978 815.97291,1105.084 741.49434,846.88159 762.64142,634.98421 868.30886,560.50443 Z M 1047.1224,487.94499 C 1145.0654,466.55152 1251.0728,468.9304 1356.276,494.97106 1488.3177,526.19569 1618.1484,598.01834 1730.7228,697.19634 1722.4153,720.60368 1711.4998,744.7361 1698.0079,769.32513 1668.2169,824.8397 1624.2268,882.64041 1569.9906,939.2824 A 965.45547,413.92564 60 0 0 1047.1224,487.94499 Z M 743.39585,663.8369 A 965.45547,413.92564 60 0 0 872.87125,1341.5744 C 818.42553,1354.8244 766.07297,1363.2892 717.61407,1366.3955 667.84213,1370.0373 622.57087,1367.8123 582.70655,1360.3048 575.13137,1323.2452 569.67491,1286.0841 566.52433,1249.1034 545.7559,1021.8702 613.45996,807.58259 743.39585,663.8369 Z M 1343.7631,431.93627 C 1379.9597,432.37464 1416.1169,434.96135 1451.971,439.72164 1552.0255,451.98143 1649.0884,482.66923 1738.6103,528.33596 1750.9678,560.96748 1753.2411,598.90703 1745.9828,640.26773 A 965.45547,771.50182 60 0 0 1343.7631,431.93627 Z M 545.79854,895.41014 A 965.45547,771.50182 60 0 0 526.3884,1344.8949 C 486.69629,1330.1196 454.93736,1308.6015 432.51615,1281.2631 439.99898,1146.1101 480.02892,1013.6072 545.79854,895.41014 Z M 431.38341,1349.7717 A 378.16802,810.43638 60 0 0 535.04609,1391.1671 965.45547,771.50182 60 0 0 663.85393,1717.7438 965.45547,771.50182 60 0 0 773.15612,1876.2565 C 671.27542,1874.0021 597.14157,1844.8742 559.79799,1793.7713 480.22992,1659.8457 434.40453,1505.7017 431.38341,1349.7717 Z M 1797.4228,561.1581 C 1913.2499,631.51245 2013.5308,727.68683 2087.0907,841.29827 2096.5906,855.58124 2105.6175,870.15481 2114.1958,884.97572 L 2113.939,885.12372 C 2146.1675,943.11705 2133.7379,1026.3084 2082.0169,1120.4615 A 965.45547,771.50182 60 0 0 2000.1324,946.24308 965.45547,771.50182 60 0 0 1781.947,672.66564 378.16802,810.43638 60 0 0 1797.4228,561.1581 Z M 591.60157,1399.8219 A 378.16802,810.43638 60 0 0 884.72667,1367.5845 965.45547,413.92564 60 0 0 973.52398,1538.9556 965.45547,413.92564 60 0 0 1152.7804,1802.3251 C 1058.0036,1835.5029 967.10314,1858.5046 886.47818,1869.0315 870.49343,1871.2495 854.95261,1872.9566 839.86847,1874.1683 721.54618,1739.7118 633.90929,1571.9917 591.60157,1399.8219 Z M 1761.1001,725.02636 C 1824.9762,785.84282 1882.4951,855.58249 1930.6351,931.62794 1980.154,1008.1686 2019.3061,1091.1858 2047.5094,1176.6293 1996.3307,1252.5775 1920.3985,1333.5432 1828.9427,1412.0091 A 965.45547,413.92564 60 0 0 1690.4623,1125.0313 965.45547,413.92564 60 0 0 1586.8295,962.24746 378.16802,810.43638 60 0 0 1761.1001,725.02636 Z M 912.27147,1360.0165 A 378.16802,810.43638 60 0 0 1247.4015,1217.112 L 1494.7122,1645.4668 C 1391.783,1704.1918 1284.6154,1754.0146 1181.2423,1792.1145 1077.7769,1665.9274 983.71411,1513.7347 912.27147,1360.0165 Z M 1566.4068,982.47475 C 1592.7298,1019.7893 1618.1075,1058.4818 1642.1894,1098.1623 1708.1901,1205.6231 1763.7359,1320.0718 1805.6063,1431.6946 1728.3993,1495.7527 1641.2552,1557.6993 1549.1731,1613.346 1540.2309,1618.8092 1531.2413,1624.201 1522.2155,1629.5308 L 1274.854,1201.088 A 378.16802,810.43638 60 0 0 1566.4068,982.47475 Z M 2175.0547,1014.0249 C 2243.3924,1196.7162 2250.9929,1402.3799 2194.9501,1589.3405 2176.2456,1654.4346 2149.5551,1716.87 2116.1469,1775.4889 A 965.45547,771.50182 60 0 0 2098.3274,1165.6889 378.16802,965.45547 60 0 0 2175.0547,1014.0249 Z M 636.46042,1903.7173 A 378.16802,965.45547 60 0 0 805.03368,1912.2489 965.45547,771.50182 60 0 0 1320.1818,2232.0396 C 1146.9706,2228.9864 974.251,2176.8088 830.32421,2080.1762 756.91192,2031.6482 691.75219,1971.7285 636.46042,1903.7173 Z M 868.1925,1905.0973 A 378.16802,965.45547 60 0 0 1170.7863,1824.6449 965.45547,413.92564 60 0 0 1617.9424,2176.3568 C 1411.2743,2223.0999 1167.7787,2156.0598 970.99357,1998.9607 934.86143,1970.4789 900.51423,1939.0062 868.1925,1905.0973 Z M 2060.1845,1217.683 C 2102.0523,1363.7193 2112.0984,1514.89 2087.3138,1651.4844 2064.113,1788.0908 2004.8572,1908.1546 1920.6385,1999.9097 A 965.45547,413.92564 60 0 0 1839.6892,1438.7545 378.16802,965.45547 60 0 0 2060.1845,1217.683 Z M 1199.5131,1813.9994 A 378.16802,965.45547 60 0 0 1507.283,1667.2402 L 1768.2006,2119.1623 C 1754.762,2125.3972 1740.3523,2129.882 1725.0242,2132.5177 1597.9967,2157.1878 1406.6298,2045.8968 1230.3359,1849.2292 1219.9859,1837.7678 1209.7115,1826.0061 1199.5131,1813.9994 Z M 1815.3904,1458.4414 C 1854.3408,1567.5611 1879.8608,1673.1987 1888.8771,1766.0518 1906.0989,1928.905 1870.537,2048.7718 1795.6052,2103.0553 L 1534.7479,1651.2376 A 378.16802,965.45547 60 0 0 1815.3904,1458.4414 Z"
     id="path825"
     inkscape:connector-curvature="0" />
</svg>
