<?xml version="1.0" encoding="UTF-8" standalone="no"?>
<svg
   xmlns:dc="http://purl.org/dc/elements/1.1/"
   xmlns:cc="http://creativecommons.org/ns#"
   xmlns:rdf="http://www.w3.org/1999/02/22-rdf-syntax-ns#"
   xmlns:svg="http://www.w3.org/2000/svg"
   xmlns="http://www.w3.org/2000/svg"
   width="44.723896mm"
   height="43.493523mm"
   viewBox="0 0 44.723896 43.493523"
   version="1.1"
   id="svg9092">
  <defs
     id="defs9086">
    <filter
       style="color-interpolation-filters:sRGB"
       id="filter28331"
       x="-0.036537889"
       width="1.0730758"
       y="-0.036538683"
       height="1.0730774">
      <feGaussianBlur
         stdDeviation="1.3989216"
         id="feGaussianBlur28333" />
    </filter>
  </defs>
  <metadata
     id="metadata9089">
    <rdf:RDF>
      <cc:Work
         rdf:about="">
        <dc:format>image/svg+xml</dc:format>
        <dc:type
           rdf:resource="http://purl.org/dc/dcmitype/StillImage" />
        <dc:title></dc:title>
      </cc:Work>
    </rdf:RDF>
  </metadata>
  <g
     id="layer1"
     transform="translate(-83.471386,-126.41991)">
    <g
       id="g9067"
       transform="translate(27.913796,38.876383)">
      <g
         id="g9061"
         transform="matrix(0.45357392,0,0,0.44110483,55.921656,87.896257)"
         style="fill:#414141;fill-opacity:1;stroke-width:0.591516;filter:url(#filter28331)">
        <path
           fill="#f05133"
           d="M 92.71,44.408 52.591,4.291 c -2.31,-2.311 -6.057,-2.311 -8.369,0 l -8.33,8.332 10.567,10.567 c 2.456,-0.83 5.272,-0.273 7.229,1.685 1.969,1.97 2.521,4.81 1.67,7.275 l 10.186,10.185 c 2.465,-0.85 5.307,-0.3 7.275,1.671 2.75,2.75 2.75,7.206 0,9.958 -2.752,2.751 -7.208,2.751 -9.961,0 -2.068,-2.07 -2.58,-5.11 -1.531,-7.658 l -9.5,-9.499 v 24.997 c 0.67,0.332 1.303,0.774 1.861,1.332 2.75,2.75 2.75,7.206 0,9.959 -2.75,2.749 -7.209,2.749 -9.957,0 -2.75,-2.754 -2.75,-7.21 0,-9.959 0.68,-0.679 1.467,-1.193 2.307,-1.537 v -25.23 c -0.84,-0.344 -1.625,-0.853 -2.307,-1.537 -2.083,-2.082 -2.584,-5.14 -1.516,-7.698 L 31.798,16.715 4.288,44.222 c -2.311,2.313 -2.311,6.06 0,8.371 l 40.121,40.118 c 2.31,2.311 6.056,2.311 8.369,0 L 92.71,52.779 c 2.311,-2.311 2.311,-6.06 0,-8.371 z"
           id="path9059"
           style="fill:#414141;fill-opacity:1;stroke-width:0.196152" />
      </g>
      <g
         id="g9065"
         transform="matrix(0.45357392,0,0,0.44110483,55.921656,87.896257)"
         style="stroke-width:0.591516">
        <path
           fill="#f05133"
           d="M 92.71,44.408 52.591,4.291 c -2.31,-2.311 -6.057,-2.311 -8.369,0 l -8.33,8.332 10.567,10.567 c 2.456,-0.83 5.272,-0.273 7.229,1.685 1.969,1.97 2.521,4.81 1.67,7.275 l 10.186,10.185 c 2.465,-0.85 5.307,-0.3 7.275,1.671 2.75,2.75 2.75,7.206 0,9.958 -2.752,2.751 -7.208,2.751 -9.961,0 -2.068,-2.07 -2.58,-5.11 -1.531,-7.658 l -9.5,-9.499 v 24.997 c 0.67,0.332 1.303,0.774 1.861,1.332 2.75,2.75 2.75,7.206 0,9.959 -2.75,2.749 -7.209,2.749 -9.957,0 -2.75,-2.754 -2.75,-7.21 0,-9.959 0.68,-0.679 1.467,-1.193 2.307,-1.537 v -25.23 c -0.84,-0.344 -1.625,-0.853 -2.307,-1.537 -2.083,-2.082 -2.584,-5.14 -1.516,-7.698 L 31.798,16.715 4.288,44.222 c -2.311,2.313 -2.311,6.06 0,8.371 l 40.121,40.118 c 2.31,2.311 6.056,2.311 8.369,0 L 92.71,52.779 c 2.311,-2.311 2.311,-6.06 0,-8.371 z"
           id="path9063"
           style="stroke-width:0.196152" />
      </g>
    </g>
  </g>
</svg>
