<?xml version="1.0" encoding="UTF-8" standalone="no"?>
<svg
   xmlns:dc="http://purl.org/dc/elements/1.1/"
   xmlns:cc="http://creativecommons.org/ns#"
   xmlns:rdf="http://www.w3.org/1999/02/22-rdf-syntax-ns#"
   xmlns:svg="http://www.w3.org/2000/svg"
   xmlns="http://www.w3.org/2000/svg"
   xmlns:sodipodi="http://sodipodi.sourceforge.net/DTD/sodipodi-0.dtd"
   xmlns:inkscape="http://www.inkscape.org/namespaces/inkscape"
   xmlns:xlink="http://www.w3.org/1999/xlink"
   width="282.24689"
   height="91.886497"
   viewBox="0 0 74.677821 24.311636"
   version="1.1"
   id="svg872"
   inkscape:version="1.0.1 (3bc2e813f5, 2020-09-07)"
   sodipodi:docname="git_is_gaming.svg">
  <style
     id="style2" />
  <defs
     id="defs866" />
  <sodipodi:namedview
     id="base"
     pagecolor="#ffffff"
     bordercolor="#666666"
     borderopacity="1.0"
     inkscape:pageopacity="0.0"
     inkscape:pageshadow="2"
     inkscape:zoom="3.959798"
     inkscape:cx="164.9625"
     inkscape:cy="-2.3665469"
     inkscape:document-units="px"
     inkscape:current-layer="layer1"
     inkscape:document-rotation="0"
     showgrid="false"
     units="px"
     inkscape:window-width="2560"
     inkscape:window-height="1414"
     inkscape:window-x="1920"
     inkscape:window-y="139"
     inkscape:window-maximized="1"
     inkscape:snap-smooth-nodes="true"
     inkscape:snap-global="false"
     fit-margin-top="0"
     fit-margin-left="0"
     fit-margin-right="0"
     fit-margin-bottom="0" />
  <metadata
     id="metadata869">
    <rdf:RDF>
      <cc:Work
         rdf:about="">
        <dc:format>image/svg+xml</dc:format>
        <dc:type
           rdf:resource="http://purl.org/dc/dcmitype/StillImage" />
        <dc:title />
      </cc:Work>
    </rdf:RDF>
  </metadata>
  <g
     inkscape:label="Layer 1"
     inkscape:groupmode="layer"
     id="layer1"
     transform="translate(-49.776693,-93.541224)">
    <path
       id="rect1867"
       style="fill:#808080;fill-opacity:1;stroke:none;stroke-width:0.79375;stroke-linecap:round;stop-color:#000000"
       d="m 80.083377,102.26805 v 2.62465 h 14.064776 v -2.62465 z m 0,4.23334 v 2.62464 h 14.064776 v -2.62464 z" />
    <a xlink:href="https://git-scm.com/">
      <path
         fill="#f05133"
         d="M 73.63027,104.6141 63.015451,93.999813 c -0.611188,-0.611452 -1.602581,-0.611452 -2.214298,0 l -2.203979,2.204508 2.795852,2.795852 c 0.649817,-0.219604 1.394883,-0.07223 1.912673,0.445823 0.520964,0.521229 0.667014,1.272644 0.441854,1.924844 l 2.695046,2.69478 c 0.652198,-0.22489 1.404144,-0.0794 1.924844,0.44212 0.727604,0.7276 0.727604,1.90659 0,2.63472 -0.728134,0.72787 -1.907117,0.72787 -2.635515,0 -0.547158,-0.54769 -0.682625,-1.35202 -0.405077,-2.02618 L 62.813309,102.603 v 6.61379 c 0.177271,0.0879 0.344752,0.20479 0.49239,0.35243 0.727604,0.7276 0.727604,1.90659 0,2.63498 -0.727604,0.72734 -1.907381,0.72734 -2.634456,0 -0.727605,-0.72866 -0.727605,-1.90764 0,-2.63498 0.179916,-0.17965 0.388143,-0.31565 0.610393,-0.40667 v -6.67543 c -0.22225,-0.091 -0.429948,-0.22569 -0.610393,-0.40667 -0.551127,-0.55086 -0.683684,-1.35996 -0.401109,-2.03676 l -2.756164,-2.756694 -7.278688,7.277894 c -0.611452,0.61198 -0.611452,1.60337 0,2.21483 l 10.615348,10.61455 c 0.611188,0.61145 1.602317,0.61145 2.214298,0 L 73.63027,106.82893 c 0.611452,-0.61145 0.611452,-1.60338 0,-2.21483 z"
         id="path897"
         style="stroke-width:0.264583" />
    </a>
    <path
       id="path1163"
       style="fill:#cccccc;fill-opacity:1;stroke:none;stroke-width:0.793751;stroke-linecap:round;stop-color:#000000"
       d="m 101.99971,107.03105 a 6.339197,6.339197 0 0 0 0,8.96495 6.339197,6.339197 0 0 0 8.96504,9e-5 6.339197,6.339197 0 0 0 1.85248,-4.25589 l 5.5246,-5.5246 a 6.339197,6.339197 0 0 0 4.25599,-1.85257 6.339197,6.339197 0 0 0 -9e-5,-8.965045 6.339197,6.339197 0 0 0 -8.96496,0 l -11.58744,11.587445 c -5.2e-4,5.2e-4 -5.2e-4,0.001 -0.001,0.002 a 6.339197,6.339197 0 0 0 -0.0446,0.0439 z" />
    <path
       id="path1165"
       style="fill:#808080;fill-opacity:1;stroke:none;stroke-width:0.793752;stroke-linecap:round;stop-color:#000000"
       d="m 115.08221,96.582442 c -0.27706,0.277068 -0.4384,0.666478 -0.4384,1.058313 -1e-5,0.391835 0.16134,0.781244 0.4384,1.058317 0.27706,0.277116 0.66646,0.438383 1.05832,0.438407 0.39186,1.9e-5 0.78132,-0.161235 1.0584,-0.438317 0.27709,-0.277091 0.43834,-0.666543 0.43832,-1.058407 -2e-5,-0.39186 -0.16129,-0.781255 -0.4384,-1.058317 -0.27708,-0.277064 -0.66648,-0.438408 -1.05832,-0.438407 -0.39184,0 -0.78125,0.161342 -1.05832,0.438411 z M 103.14912,109.743 c -0.1754,0.17541 -0.1754,0.45792 0,0.63333 l 1.30387,1.30386 -1.30378,1.30377 c -0.1754,0.17541 -0.17549,0.45783 -9e-5,0.63324 l 1.11441,1.1144 c 0.1754,0.17541 0.45783,0.17532 0.63323,-9e-5 l 1.30378,-1.30377 1.30386,1.30386 c 0.17541,0.17541 0.45783,0.17532 0.63324,-9e-5 l 1.11431,-1.11431 c 0.17541,-0.17541 0.1755,-0.45783 9e-5,-0.63324 l -1.30386,-1.30386 1.30386,-1.30386 c 0.17541,-0.17541 0.1754,-0.45774 0,-0.63315 l -1.1144,-1.1144 c -0.17541,-0.17541 -0.45774,-0.17541 -0.63315,0 l -1.30386,1.30386 -1.30387,-1.30386 c -0.1754,-0.17541 -0.45791,-0.17541 -0.63332,0 z m 11.92397,-9.1554 c -0.27707,0.27707 -0.43841,0.66648 -0.43841,1.05831 0,0.39184 0.16135,0.78125 0.43841,1.05832 0.27707,0.27706 0.66648,0.43841 1.05832,0.43841 0.39183,0 0.78124,-0.16135 1.05831,-0.43841 0.27707,-0.27707 0.43841,-0.66648 0.43841,-1.05832 0,-0.39183 -0.16134,-0.78124 -0.43841,-1.05831 -0.27707,-0.27707 -0.66648,-0.43841 -1.05831,-0.43841 -0.39184,0 -0.78125,0.16134 -1.05832,0.43841 z m 4.00453,-3.981993 c -0.27114,0.278353 -0.4271,0.665714 -0.42454,1.054289 0.003,0.38858 0.16361,0.773729 0.43841,1.048478 0.27707,0.277068 0.66648,0.438407 1.05831,0.438407 0.39184,0 0.78125,-0.161343 1.05832,-0.438406 0.27707,-0.277073 0.43841,-0.666483 0.43841,-1.058318 0,-0.391836 -0.16134,-0.781244 -0.43841,-1.058313 -0.27707,-0.277069 -0.66648,-0.438412 -1.05832,-0.438411 -0.39183,0 -0.78124,0.161342 -1.05831,0.43841 -0.004,0.0041 -0.008,0.0081 -0.0123,0.01226 a 0.34832381,0.34832381 0 0 0 -0.002,0.0016 z m 0.005,3.991203 c -0.27706,0.27707 -0.43841,0.66648 -0.4384,1.05832 0,0.39183 0.16134,0.78124 0.4384,1.05831 0.27707,0.27707 0.66649,0.43841 1.05832,0.43841 0.39183,0 0.78124,-0.16134 1.05832,-0.43841 0.27706,-0.27707 0.43841,-0.66648 0.4384,-1.05831 0,-0.39184 -0.16134,-0.78125 -0.43841,-1.05832 -0.27706,-0.27707 -0.66648,-0.43841 -1.05831,-0.4384 -0.39183,-1e-5 -0.78124,0.16133 -1.05832,0.4384 z" />
  </g>
</svg>
